{
.appVersion = "1286";
DisplayStrings = (
hmn,
"óáñ",
hh,
"4",
"",
"",
"",
"",
"",
"",
"",
"",
a,
"",
"",
";",
k,
A,
R,
"&89"
);
customParameters = (
{
name = glyphOrder;
value = (
A,
B,
C,
D,
E,
F,
G,
H,
I,
J,
K,
L,
M,
N,
O,
P,
Q,
R,
S,
T,
U,
V,
W,
X,
Y,
Z,
a,
b,
c,
d,
e,
f,
g,
h,
i,
j,
k,
l,
m,
n,
o,
p,
q,
r,
s,
t,
u,
v,
w,
x,
y,
z,
period,
comma,
colon,
semicolon,
question,
exclam,
slash,
hyphen,
endash,
emdash,
parenleft,
parenright,
quotedblleft,
quotedblright,
quoteleft,
quoteright,
at,
ampersand,
space,
zero,
one,
two,
three,
four,
five,
six,
seven,
eight,
nine,
dollar,
.notdef
);
}
);
date = "2021-09-10 09:03:00 +0000";
designer = "Andrea Buendía, Constanza Rizzo, Juan José Melendez, Miguel Ángel Contreras, Tamara Segura";
disablesNiceNames = 1;
familyName = "AC-Jade";
fontMaster = (
{
alignmentZones = (
"{670, 10}",
"{510, 10}",
"{0, -10}",
"{-220, -10}"
);
ascender = 780;
capHeight = 670;
customParameters = (
{
name = "Alignment Zones";
value = (
{
pos = 500;
size = 10;
}
);
}
);
descender = -220;
guideLines = (
{
position = "{498, 568}";
},
{
position = "{532, 7}";
}
);
id = master01;
xHeight = 510;
}
);
glyphs = (
{
glyphname = A;
lastChange = "2021-09-12 21:02:38 +0000";
layers = (
{
layerId = master01;
paths = (
{
closed = 1;
nodes = (
"131 211 OFFCURVE",
"178 213 OFFCURVE",
"261 213 CURVE SMOOTH",
"344 213 OFFCURVE",
"402 212 OFFCURVE",
"412 211 CURVE",
"412 300 LINE",
"404 300 OFFCURVE",
"342 298 OFFCURVE",
"261 298 CURVE SMOOTH",
"180 298 OFFCURVE",
"129 300 OFFCURVE",
"121 300 CURVE",
"121 211 LINE"
);
},
{
closed = 1;
nodes = (
"27 0 OFFCURVE",
"123 0 OFFCURVE",
"123 0 CURVE",
"130 8 LINE",
"130 8 OFFCURVE",
"153 155 OFFCURVE",
"185 300 CURVE SMOOTH",
"231 510 OFFCURVE",
"278 631 OFFCURVE",
"273 631 CURVE",
"252 631 LINE",
"252 631 OFFCURVE",
"282 510 OFFCURVE",
"342 300 CURVE SMOOTH",
"374 187 OFFCURVE",
"425 13 OFFCURVE",
"425 13 CURVE",
"431 3 LINE",
"431 3 OFFCURVE",
"523 3 OFFCURVE",
"523 3 CURVE",
"528 13 LINE",
"320 661 LINE",
"320 661 OFFCURVE",
"314 671 OFFCURVE",
"314 671 CURVE",
"201 671 LINE",
"195 661 LINE",
"21 10 LINE",
"27 0 LINE"
);
}
);
width = 533;
}
);
unicode = 0041;
changeCount = 3;
},
{
color = (99,255,210,255);
glyphname = B;
layers = (
{
background = {
paths = (
{
closed = 1;
nodes = (
"250 0 LINE SMOOTH",
"428 0 OFFCURVE",
"536 106 OFFCURVE",
"536 331 CURVE SMOOTH",
"536 556 OFFCURVE",
"429 675 OFFCURVE",
"253 675 CURVE SMOOTH",
"55 675 LINE",
"50 666 LINE",
"55 551 OFFCURVE",
"57 442 OFFCURVE",
"57 337 CURVE SMOOTH",
"57 234 OFFCURVE",
"55 127 OFFCURVE",
"50 12 CURVE",
"55 0 LINE"
);
},
{
closed = 1;
nodes = (
"436 510 OFFCURVE",
"436 331 CURVE SMOOTH",
"436 151 OFFCURVE",
"355 85 OFFCURVE",
"222 85 CURVE SMOOTH",
"113 85 LINE",
"152 66 LINE",
"152 114 OFFCURVE",
"147 194 OFFCURVE",
"147 339 CURVE SMOOTH",
"147 471 OFFCURVE",
"149 553 OFFCURVE",
"152 606 CURVE",
"123 590 LINE",
"235 590 LINE SMOOTH",
"354 590 OFFCURVE"
);
}
);
};
layerId = master01;
paths = (
{
closed = 1;
nodes = (
"235 0 LINE SMOOTH",
"386 0 OFFCURVE",
"476 62 OFFCURVE",
"476 191 CURVE SMOOTH",
"476 320 OFFCURVE",
"386 379 OFFCURVE",
"217 364 CURVE",
"238 359 LINE",
"349 366 OFFCURVE",
"430 421 OFFCURVE",
"430 516 CURVE",
"430 614 OFFCURVE",
"354 675 OFFCURVE",
"232 675 CURVE SMOOTH",
"65 675 LINE",
"60 666 LINE",
"64 569 OFFCURVE",
"65 459 OFFCURVE",
"65 348 CURVE SMOOTH",
"65 232 OFFCURVE",
"64 115 OFFCURVE",
"60 12 CURVE",
"65 0 LINE"
);
},
{
closed = 1;
nodes = (
"90 85 LINE",
"160 66 LINE",
"157 159 OFFCURVE",
"155 250 OFFCURVE",
"155 349 CURVE SMOOTH",
"155 431 OFFCURVE",
"157 521 OFFCURVE",
"160 617 CURVE",
"130 590 LINE",
"213 590 LINE SMOOTH",
"294 590 OFFCURVE",
"330 563 OFFCURVE",
"330 494 CURVE SMOOTH",
"330 437 OFFCURVE",
"292 388 OFFCURVE",
"203 388 CURVE SMOOTH",
"134 388 LINE",
"134 316 LINE",
"207 318 LINE SMOOTH",
"315 321 OFFCURVE",
"376 285 OFFCURVE",
"376 203 CURVE SMOOTH",
"376 121 OFFCURVE",
"324 85 OFFCURVE",
"205 85 CURVE SMOOTH"
);
}
);
userData = {
com.schriftgestaltung.Glyphs.lastChange = "2021-09-01 03:03:17 +0000";
};
width = 506;
}
);
unicode = 0042;
},
{
color = (99,255,210,255);
glyphname = C;
layers = (
{
background = {
paths = (
{
closed = 1;
nodes = (
"465 90 OFFCURVE",
"530 176 OFFCURVE",
"530 335 CURVE SMOOTH",
"530 494 OFFCURVE",
"465 580 OFFCURVE",
"345 580 CURVE SMOOTH",
"225 580 OFFCURVE",
"160 494 OFFCURVE",
"160 335 CURVE SMOOTH",
"160 176 OFFCURVE",
"225 90 OFFCURVE",
"345 90 CURVE SMOOTH"
);
},
{
closed = 1;
nodes = (
"161 -10 OFFCURVE",
"50 120 OFFCURVE",
"50 335 CURVE SMOOTH",
"50 550 OFFCURVE",
"161 680 OFFCURVE",
"345 680 CURVE SMOOTH",
"529 680 OFFCURVE",
"640 550 OFFCURVE",
"640 335 CURVE SMOOTH",
"640 120 OFFCURVE",
"529 -10 OFFCURVE",
"345 -10 CURVE SMOOTH"
);
}
);
};
layerId = master01;
paths = (
{
closed = 1;
nodes = (
"428 -10 OFFCURVE",
"497 15 OFFCURVE",
"540 39 CURVE",
"543 44 LINE",
"515 106 LINE",
"511 108 LINE",
"456 92 OFFCURVE",
"407 82 OFFCURVE",
"360 82 CURVE",
"223 82 OFFCURVE",
"150 170 OFFCURVE",
"150 346 CURVE SMOOTH",
"150 522 OFFCURVE",
"223 590 OFFCURVE",
"352 590 CURVE SMOOTH",
"415 590 OFFCURVE",
"450 577 OFFCURVE",
"501 556 CURVE",
"505 558 LINE",
"535 640 LINE",
"532 645 LINE",
"494 664 OFFCURVE",
"434 680 OFFCURVE",
"355 680 CURVE SMOOTH",
"191 680 OFFCURVE",
"50 591 OFFCURVE",
"50 345 CURVE SMOOTH",
"50 99 OFFCURVE",
"194 -10 OFFCURVE",
"341 -10 CURVE"
);
}
);
userData = {
com.schriftgestaltung.Glyphs.lastChange = "2021-08-30 19:33:09 +0000";
};
width = 564;
}
);
unicode = 0043;
},
{
color = (99,255,210,255);
glyphname = D;
layers = (
{
background = {
paths = (
{
closed = 1;
nodes = (
"402 -9 OFFCURVE",
"543 99 OFFCURVE",
"543 345 CURVE SMOOTH",
"543 591 OFFCURVE",
"402 680 OFFCURVE",
"238 680 CURVE SMOOTH",
"159 680 OFFCURVE",
"99 664 OFFCURVE",
"61 645 CURVE",
"58 640 LINE",
"88 548 LINE",
"92 546 LINE",
"143 567 OFFCURVE",
"178 580 OFFCURVE",
"241 580 CURVE SMOOTH",
"364 580 OFFCURVE",
"433 519 OFFCURVE",
"433 346 CURVE SMOOTH",
"433 170 OFFCURVE",
"371 90 OFFCURVE",
"233 90 CURVE",
"186 90 OFFCURVE",
"137 100 OFFCURVE",
"82 116 CURVE",
"78 114 LINE",
"50 44 LINE",
"53 39 LINE",
"96 15 OFFCURVE",
"165 -10 OFFCURVE",
"252 -10 CURVE"
);
}
);
};
layerId = master01;
paths = (
{
closed = 1;
nodes = (
"250 0 LINE SMOOTH",
"428 0 OFFCURVE",
"536 106 OFFCURVE",
"536 331 CURVE SMOOTH",
"536 556 OFFCURVE",
"429 675 OFFCURVE",
"253 675 CURVE SMOOTH",
"55 675 LINE",
"50 666 LINE",
"55 551 OFFCURVE",
"57 442 OFFCURVE",
"57 337 CURVE SMOOTH",
"57 234 OFFCURVE",
"55 127 OFFCURVE",
"50 12 CURVE",
"55 0 LINE"
);
},
{
closed = 1;
nodes = (
"436 510 OFFCURVE",
"436 331 CURVE SMOOTH",
"436 151 OFFCURVE",
"355 85 OFFCURVE",
"222 85 CURVE SMOOTH",
"113 85 LINE",
"152 66 LINE",
"152 114 OFFCURVE",
"147 194 OFFCURVE",
"147 339 CURVE SMOOTH",
"147 471 OFFCURVE",
"149 553 OFFCURVE",
"152 606 CURVE",
"123 590 LINE",
"235 590 LINE SMOOTH",
"354 590 OFFCURVE"
);
}
);
userData = {
com.schriftgestaltung.Glyphs.lastChange = "2021-09-01 03:16:30 +0000";
};
width = 576;
}
);
rightMetricsKey = "=O";
unicode = 0044;
},
{
color = (99,255,210,255);
glyphname = E;
layers = (
{
background = {
paths = (
{
closed = 1;
nodes = (
"230 398 OFFCURVE",
"139 400 OFFCURVE",
"131 400 CURVE",
"131 311 LINE",
"141 311 OFFCURVE",
"228 313 OFFCURVE",
"311 313 CURVE SMOOTH",
"394 313 OFFCURVE",
"482 311 OFFCURVE",
"492 311 CURVE",
"492 400 LINE",
"484 400 OFFCURVE",
"392 398 OFFCURVE",
"311 398 CURVE SMOOTH"
);
},
{
closed = 1;
nodes = (
"60 632 OFFCURVE",
"71 446 OFFCURVE",
"70 352 CURVE SMOOTH",
"69 258 OFFCURVE",
"60 10 OFFCURVE",
"60 10 CURVE",
"65 0 LINE",
"165 0 LINE",
"170 10 LINE",
"170 10 OFFCURVE",
"160 259 OFFCURVE",
"160 352 CURVE SMOOTH",
"160 445 OFFCURVE",
"163 618 OFFCURVE",
"163 618 CURVE",
"163 657 OFFCURVE",
"146 680 OFFCURVE",
"99 680 CURVE",
"65 680 OFFCURVE",
"32 670 OFFCURVE",
"0 661 CURVE",
"7 589 LINE",
"79 595 LINE",
"60 632 LINE"
);
},
{
closed = 1;
nodes = (
"559 0 LINE",
"559 3 OFFCURVE",
"564 7 OFFCURVE",
"564 12 CURVE SMOOTH",
"563 82 OFFCURVE",
"554 260 OFFCURVE",
"554 352 CURVE SMOOTH",
"554 444 OFFCURVE",
"564 660 OFFCURVE",
"564 660 CURVE",
"559 670 LINE",
"459 670 LINE",
"454 660 LINE",
"454 660 OFFCURVE",
"464 445 OFFCURVE",
"464 352 CURVE SMOOTH",
"464 259 OFFCURVE",
"458 77 OFFCURVE",
"459 11 CURVE",
"461 7 OFFCURVE",
"462 3 OFFCURVE",
"464 0 CURVE"
);
}
);
};
layerId = master01;
paths = (
{
closed = 1;
nodes = (
"150 172 OFFCURVE",
"152 96 OFFCURVE",
"158 53 CURVE",
"124 82 LINE",
"341 82 OFFCURVE",
"405 90 OFFCURVE",
"405 90 CURVE",
"410 81 LINE",
"410 10 LINE",
"405 0 LINE",
"379 5 OFFCURVE",
"312 3 OFFCURVE",
"230 4 CURVE",
"145 5 OFFCURVE",
"100 3 OFFCURVE",
"55 0 CURVE",
"50 10 LINE",
"50 10 OFFCURVE",
"60 190 OFFCURVE",
"60 335 CURVE SMOOTH",
"60 480 OFFCURVE",
"50 660 OFFCURVE",
"50 660 CURVE",
"55 670 LINE",
"98 669 OFFCURVE",
"132 665 OFFCURVE",
"224 666 CURVE",
"332 666 OFFCURVE",
"380 669 OFFCURVE",
"405 670 CURVE",
"410 660 LINE",
"410 589 LINE",
"405 580 LINE",
"405 580 OFFCURVE",
"341 588 OFFCURVE",
"124 588 CURVE",
"158 617 LINE",
"152 574 OFFCURVE",
"150 498 OFFCURVE",
"150 335 CURVE SMOOTH"
);
},
{
closed = 1;
nodes = (
"120 387 LINE",
"258 387 OFFCURVE",
"341 395 OFFCURVE",
"341 395 CURVE",
"351 391 LINE",
"351 309 LINE",
"341 305 LINE",
"341 305 OFFCURVE",
"261 313 OFFCURVE",
"120 313 CURVE"
);
}
);
userData = {
com.schriftgestaltung.Glyphs.lastChange = "2021-08-30 02:21:10 +0000";
};
width = 450;
}
);
unicode = 0045;
},
{
color = (99,255,210,255);
glyphname = F;
layers = (
{
background = {
paths = (
{
closed = 1;
nodes = (
"167 172 OFFCURVE",
"169 96 OFFCURVE",
"175 53 CURVE",
"141 82 LINE",
"358 82 OFFCURVE",
"422 90 OFFCURVE",
"422 90 CURVE",
"427 81 LINE",
"427 10 LINE",
"422 0 LINE",
"396 5 OFFCURVE",
"329 3 OFFCURVE",
"247 4 CURVE",
"162 5 OFFCURVE",
"117 3 OFFCURVE",
"72 0 CURVE",
"67 10 LINE",
"67 10 OFFCURVE",
"77 190 OFFCURVE",
"77 335 CURVE SMOOTH",
"77 480 OFFCURVE",
"67 660 OFFCURVE",
"67 660 CURVE",
"72 670 LINE",
"115 669 OFFCURVE",
"149 665 OFFCURVE",
"241 666 CURVE",
"349 666 OFFCURVE",
"397 669 OFFCURVE",
"422 670 CURVE",
"427 660 LINE",
"427 589 LINE",
"422 580 LINE",
"422 580 OFFCURVE",
"358 588 OFFCURVE",
"141 588 CURVE",
"175 617 LINE",
"169 574 OFFCURVE",
"167 498 OFFCURVE",
"167 335 CURVE SMOOTH"
);
},
{
closed = 1;
nodes = (
"137 387 LINE",
"275 387 OFFCURVE",
"358 395 OFFCURVE",
"358 395 CURVE",
"368 391 LINE",
"368 309 LINE",
"358 305 LINE",
"358 305 OFFCURVE",
"278 313 OFFCURVE",
"137 313 CURVE"
);
}
);
};
layerId = master01;
paths = (
{
closed = 1;
nodes = (
"134 0 OFFCURVE",
"83 0 OFFCURVE",
"55 -2 CURVE",
"50 8 LINE",
"50 8 OFFCURVE",
"66 200 OFFCURVE",
"66 355 CURVE SMOOTH",
"66 490 OFFCURVE",
"57 658 OFFCURVE",
"57 658 CURVE",
"62 668 LINE",
"111 669 OFFCURVE",
"148 666 OFFCURVE",
"246 666 CURVE",
"340 666 OFFCURVE",
"380 668 OFFCURVE",
"402 668 CURVE",
"407 658 LINE",
"407 588 LINE",
"402 579 LINE",
"402 579 OFFCURVE",
"253 587 OFFCURVE",
"141 587 CURVE",
"165 615 LINE",
"160 576 OFFCURVE",
"157 508 OFFCURVE",
"157 361 CURVE SMOOTH",
"157 152 OFFCURVE",
"161 100 OFFCURVE",
"171 8 CURVE",
"164 -2 LINE"
);
},
{
closed = 1;
nodes = (
"107 373 LINE",
"210 373 OFFCURVE",
"338 381 OFFCURVE",
"338 381 CURVE",
"348 377 LINE",
"348 295 LINE",
"338 291 LINE",
"338 291 OFFCURVE",
"214 299 OFFCURVE",
"107 299 CURVE"
);
}
);
userData = {
com.schriftgestaltung.Glyphs.lastChange = "2021-08-30 18:50:33 +0000";
};
width = 392;
}
);
unicode = 0046;
},
{
color = (99,255,210,255);
glyphname = G;
layers = (
{
background = {
paths = (
{
closed = 1;
nodes = (
"428 -10 OFFCURVE",
"497 15 OFFCURVE",
"540 39 CURVE",
"543 44 LINE",
"515 106 LINE",
"511 108 LINE",
"456 92 OFFCURVE",
"407 82 OFFCURVE",
"360 82 CURVE",
"223 82 OFFCURVE",
"150 170 OFFCURVE",
"150 346 CURVE SMOOTH",
"150 522 OFFCURVE",
"223 590 OFFCURVE",
"352 590 CURVE SMOOTH",
"415 590 OFFCURVE",
"450 577 OFFCURVE",
"501 556 CURVE",
"505 558 LINE",
"535 640 LINE",
"532 645 LINE",
"494 664 OFFCURVE",
"434 680 OFFCURVE",
"355 680 CURVE SMOOTH",
"191 680 OFFCURVE",
"50 591 OFFCURVE",
"50 345 CURVE SMOOTH",
"50 99 OFFCURVE",
"194 -10 OFFCURVE",
"341 -10 CURVE"
);
}
);
};
layerId = master01;
paths = (
{
closed = 1;
nodes = (
"150 133.082 OFFCURVE",
"233 78 OFFCURVE",
"357 80 CURVE",
"428 80 OFFCURVE",
"475 93 OFFCURVE",
"512 114 CURVE",
"454 43 LINE",
"460 85 OFFCURVE",
"468 122 OFFCURVE",
"468 206 CURVE",
"468 260 OFFCURVE",
"466 301 OFFCURVE",
"458 330 CURVE",
"484 291 LINE",
"340 291 LINE",
"335 296 LINE",
"335 366 LINE",
"340 371 LINE",
"358.401 369.686 OFFCURVE",
"405.217 369 OFFCURVE",
"465 369 CURVE SMOOTH",
"503.737 369 OFFCURVE",
"538.598 370.031 OFFCURVE",
"557 371 CURVE",
"562 366 LINE",
"561 332 OFFCURVE",
"557 286 OFFCURVE",
"557 234 CURVE",
"557 134 OFFCURVE",
"560 93 OFFCURVE",
"562 53 CURVE",
"561 48 LINE",
"488.601 -3.236 OFFCURVE",
"410 -10 OFFCURVE",
"351 -10 CURVE SMOOTH",
"196 -10 OFFCURVE",
"50 71 OFFCURVE",
"50 335 CURVE SMOOTH",
"50 599.767 OFFCURVE",
"199 680 OFFCURVE",
"351 680 CURVE SMOOTH",
"431.229 680 OFFCURVE",
"496.764 663.428 OFFCURVE",
"546 650 CURVE",
"549 645 LINE",
"525 557 LINE",
"521 555 LINE",
"467.714 573.14 OFFCURVE",
"422.553 590 OFFCURVE",
"349 590 CURVE",
"224 590 OFFCURVE",
"150 529.764 OFFCURVE",
"150 335 CURVE SMOOTH"
);
}
);
userData = {
com.schriftgestaltung.Glyphs.lastChange = "2021-08-30 03:33:29 +0000";
};
width = 602;
}
);
unicode = 0047;
},
{
color = (99,255,210,255);
glyphname = H;
layers = (
{
background = {
paths = (
{
closed = 1;
nodes = (
"462 499 OFFCURVE",
"454 660 OFFCURVE",
"454 660 CURVE",
"459 670 LINE",
"566 670 LINE",
"571 660 LINE",
"571 660 OFFCURVE",
"561 450 OFFCURVE",
"561 360 CURVE SMOOTH",
"561 309.687 OFFCURVE",
"569.952 83.276 OFFCURVE",
"571 12 CURVE SMOOTH",
"571 7 OFFCURVE",
"566 3 OFFCURVE",
"566 0 CURVE",
"464 0 LINE",
"462 3 OFFCURVE",
"461 7 OFFCURVE",
"459 11 CURVE",
"457.941 62.871 OFFCURVE",
"461.941 210.019 OFFCURVE",
"463 300 CURVE",
"441 301 OFFCURVE",
"352 301 OFFCURVE",
"317 301 CURVE SMOOTH",
"284 301 OFFCURVE",
"180 301 OFFCURVE",
"160 300 CURVE",
"162.117 183.579 OFFCURVE",
"169 10 OFFCURVE",
"169 10 CURVE",
"164 0 LINE",
"57 0 LINE",
"52 10 LINE",
"52 10 OFFCURVE",
"61 255.21 OFFCURVE",
"61 360 CURVE SMOOTH",
"61 438 OFFCURVE",
"58 532 OFFCURVE",
"55 586 CURVE",
"10 583 LINE",
"3 661 LINE",
"36 673 OFFCURVE",
"66 680 OFFCURVE",
"99 680 CURVE SMOOTH",
"139 680 OFFCURVE",
"154 657 OFFCURVE",
"154 619 CURVE",
"154 619 OFFCURVE",
"158 509 OFFCURVE",
"159 400 CURVE",
"180 399 OFFCURVE",
"284 399 OFFCURVE",
"317 399 CURVE SMOOTH",
"351 399 OFFCURVE",
"441 399 OFFCURVE",
"464 400 CURVE"
);
}
);
};
layerId = master01;
paths = (
{
closed = 1;
nodes = (
"270 398 OFFCURVE",
"179 400 OFFCURVE",
"171 400 CURVE",
"171 311 LINE",
"181 311 OFFCURVE",
"268 313 OFFCURVE",
"351 313 CURVE SMOOTH",
"434 313 OFFCURVE",
"522 311 OFFCURVE",
"532 311 CURVE",
"532 400 LINE",
"524 400 OFFCURVE",
"432 398 OFFCURVE",
"351 398 CURVE SMOOTH"
);
},
{
closed = 1;
nodes = (
"100 632 OFFCURVE",
"111 446 OFFCURVE",
"110 352 CURVE SMOOTH",
"109 258 OFFCURVE",
"100 10 OFFCURVE",
"100 10 CURVE",
"105 0 LINE",
"205 0 LINE",
"210 10 LINE",
"210 10 OFFCURVE",
"200 259 OFFCURVE",
"200 352 CURVE SMOOTH",
"200 445 OFFCURVE",
"203 618 OFFCURVE",
"203 618 CURVE",
"203 657 OFFCURVE",
"186 680 OFFCURVE",
"139 680 CURVE",
"105 680 OFFCURVE",
"72 670 OFFCURVE",
"40 661 CURVE",
"47 589 LINE",
"119 595 LINE",
"100 632 LINE"
);
},
{
closed = 1;
nodes = (
"599 0 LINE",
"599 3 OFFCURVE",
"604 7 OFFCURVE",
"604 12 CURVE SMOOTH",
"603 82 OFFCURVE",
"594 260 OFFCURVE",
"594 352 CURVE SMOOTH",
"594 444 OFFCURVE",
"604 660 OFFCURVE",
"604 660 CURVE",
"599 670 LINE",
"499 670 LINE",
"494 660 LINE",
"494 660 OFFCURVE",
"504 445 OFFCURVE",
"504 352 CURVE SMOOTH",
"504 259 OFFCURVE",
"498 77 OFFCURVE",
"499 11 CURVE",
"501 7 OFFCURVE",
"502 3 OFFCURVE",
"504 0 CURVE"
);
}
);
userData = {
com.schriftgestaltung.Glyphs.lastChange = "2021-08-27 20:44:48 +0000";
};
width = 654;
}
);
unicode = 0048;
},
{
color = (99,255,210,255);
glyphname = I;
layers = (
{
background = {
paths = (
{
closed = 1;
nodes = (
"269 0 LINE",
"269 3 OFFCURVE",
"274 7 OFFCURVE",
"274 12 CURVE SMOOTH",
"273 82 OFFCURVE",
"264 260 OFFCURVE",
"264 352 CURVE SMOOTH",
"264 444 OFFCURVE",
"274 660 OFFCURVE",
"274 660 CURVE",
"269 670 LINE",
"159 670 LINE",
"154 660 LINE",
"154 660 OFFCURVE",
"164 445 OFFCURVE",
"164 352 CURVE SMOOTH",
"164 259 OFFCURVE",
"158 77 OFFCURVE",
"159 11 CURVE",
"161 7 OFFCURVE",
"162 3 OFFCURVE",
"164 0 CURVE"
);
}
);
};
layerId = master01;
paths = (
{
closed = 1;
nodes = (
"178 610 LINE",
"181.067 560.933 OFFCURVE",
"186 415.762 OFFCURVE",
"186 335 CURVE SMOOTH",
"186 256 OFFCURVE",
"181 109 OFFCURVE",
"178 55 CURVE",
"284 55 LINE",
"281 109 OFFCURVE",
"276 256 OFFCURVE",
"276 335 CURVE SMOOTH",
"276 414.753 OFFCURVE",
"280.933 558.925 OFFCURVE",
"284 608 CURVE",
"255 592 LINE",
"289 590 OFFCURVE",
"357 590 OFFCURVE",
"399 587 CURVE",
"409 595 LINE",
"409 664 LINE",
"402 672 LINE",
"334 671 OFFCURVE",
"282 670 OFFCURVE",
"230 670 CURVE SMOOTH",
"179 670 OFFCURVE",
"126 671 OFFCURVE",
"56 672 CURVE",
"50 665 LINE",
"50 595 LINE",
"56 587 LINE",
"113 592 OFFCURVE",
"158 592 OFFCURVE",
"200 593 CURVE"
);
},
{
closed = 1;
nodes = (
"127 -1 OFFCURVE",
"179 0 OFFCURVE",
"231 0 CURVE SMOOTH",
"283 0 OFFCURVE",
"334 -1 OFFCURVE",
"402 -2 CURVE",
"411 11 LINE",
"411 68 LINE",
"399 83 LINE",
"332 77 OFFCURVE",
"281 76 OFFCURVE",
"230 76 CURVE SMOOTH",
"178 76 OFFCURVE",
"125 77 OFFCURVE",
"56 83 CURVE",
"50 68 LINE",
"50 10 LINE",
"57 -2 LINE"
);
}
);
userData = {
com.schriftgestaltung.Glyphs.lastChange = "2021-08-27 21:28:01 +0000";
};
width = 461;
}
);
unicode = 0049;
},
{
glyphname = J;
layers = (
{
layerId = master01;
paths = (
{
closed = 1;
nodes = (
"0 0 OFFCURVE"
);
},
{
closed = 0;
nodes = (
"20 182 LINE"
);
},
{
closed = 1;
nodes = (
"20 176 OFFCURVE",
"20 181 OFFCURVE",
"20 181 CURVE",
"24 191 LINE",
"109 191 LINE",
"113 181 LINE",
"113 181 OFFCURVE",
"113 179 OFFCURVE",
"113 176 CURVE",
"113 124 OFFCURVE",
"133 75 OFFCURVE",
"206 75 CURVE",
"292 75 OFFCURVE",
"290 139 OFFCURVE",
"290 274 CURVE",
"290 275 LINE",
"291 302 OFFCURVE",
"291 327 OFFCURVE",
"291 348 CURVE SMOOTH",
"291 458 OFFCURVE",
"288 600 OFFCURVE",
"288 600 CURVE",
"337 582 LINE",
"213 582 OFFCURVE",
"132 571 OFFCURVE",
"132 571 CURVE",
"122 576 LINE",
"122 665 LINE",
"132 670 LINE",
"132 670 OFFCURVE",
"218 667 OFFCURVE",
"259 667 CURVE SMOOTH",
"297 667 OFFCURVE",
"361 670 OFFCURVE",
"392 670 CURVE",
"387 348 LINE SMOOTH",
"387 331 OFFCURVE",
"387 312 OFFCURVE",
"387 290 CURVE",
"384 169 LINE",
"384 108 OFFCURVE",
"353 -10 OFFCURVE",
"206 -10 CURVE",
"68 -10 OFFCURVE",
"28 70 OFFCURVE",
"20 171 CURVE"
);
}
);
userData = {
com.schriftgestaltung.Glyphs.lastChange = "2021-09-11 00:14:15 +0000";
};
width = 412;
}
);
unicode = 004A;
},
{
color = (99,255,210,255);
glyphname = L;
layers = (
{
background = {
paths = (
{
closed = 1;
nodes = (
"150 172 OFFCURVE",
"152 96 OFFCURVE",
"158 53 CURVE",
"124 82 LINE",
"341 82 OFFCURVE",
"405 90 OFFCURVE",
"405 90 CURVE",
"410 81 LINE",
"410 10 LINE",
"405 0 LINE",
"379 5 OFFCURVE",
"312 3 OFFCURVE",
"230 4 CURVE",
"145 5 OFFCURVE",
"100 3 OFFCURVE",
"55 0 CURVE",
"50 10 LINE",
"50 10 OFFCURVE",
"60 190 OFFCURVE",
"60 335 CURVE SMOOTH",
"60 480 OFFCURVE",
"50 660 OFFCURVE",
"50 660 CURVE",
"55 670 LINE",
"98 669 OFFCURVE",
"132 665 OFFCURVE",
"224 666 CURVE",
"332 666 OFFCURVE",
"380 669 OFFCURVE",
"405 670 CURVE",
"410 660 LINE",
"410 589 LINE",
"405 580 LINE",
"405 580 OFFCURVE",
"341 588 OFFCURVE",
"124 588 CURVE",
"158 617 LINE",
"152 574 OFFCURVE",
"150 498 OFFCURVE",
"150 335 CURVE SMOOTH"
);
},
{
closed = 1;
nodes = (
"120 387 LINE",
"258 387 OFFCURVE",
"341 395 OFFCURVE",
"341 395 CURVE",
"351 391 LINE",
"351 309 LINE",
"341 305 LINE",
"341 305 OFFCURVE",
"261 313 OFFCURVE",
"120 313 CURVE"
);
}
);
};
layerId = master01;
paths = (
{
closed = 1;
nodes = (
"150 195 OFFCURVE",
"154 103 OFFCURVE",
"157 53 CURVE",
"114 81 LINE",
"265 81 OFFCURVE",
"385 89 OFFCURVE",
"385 89 CURVE",
"390 80 LINE",
"390 10 LINE",
"385 0 LINE",
"329.991 2.947 OFFCURVE",
"266 4 OFFCURVE",
"219 4 CURVE SMOOTH",
"174 4 OFFCURVE",
"124.265 3.056 OFFCURVE",
"55 0 CURVE",
"50 10 LINE",
"50 10 OFFCURVE",
"60 190 OFFCURVE",
"60 335 CURVE SMOOTH",
"60 472 OFFCURVE",
"54 601 OFFCURVE",
"50 660 CURVE",
"55 670 LINE",
"153 670 LINE",
"158 660 LINE",
"152 610 OFFCURVE",
"150 471 OFFCURVE",
"150 333 CURVE SMOOTH"
);
}
);
userData = {
com.schriftgestaltung.Glyphs.lastChange = "2021-08-30 02:09:34 +0000";
};
width = 400;
}
);
unicode = 004C;
},
{
glyphname = M;
layers = (
{
layerId = master01;
paths = (
{
closed = 1;
nodes = (
"403 63 LINE",
"191 670 LINE",
"55 670 LINE",
"50 664 LINE",
"64 568 OFFCURVE",
"65 482 OFFCURVE",
"65 375 CURVE SMOOTH",
"65 186 OFFCURVE",
"65 109 OFFCURVE",
"55 10 CURVE",
"60 0 LINE",
"150 0 LINE",
"155 10 LINE",
"145 108 OFFCURVE",
"145 186 OFFCURVE",
"145 440 CURVE",
"127 618 LINE",
"114 609 LINE",
"169 425 LINE",
"325 0 LINE",
"442 0 LINE",
"577 433 LINE",
"630 609 LINE",
"617 618 LINE",
"603 440 LINE",
"603 186 OFFCURVE",
"600 109 OFFCURVE",
"593 10 CURVE",
"598 0 LINE",
"698 0 LINE",
"703 10 LINE",
"694 109 OFFCURVE",
"693 186 OFFCURVE",
"693 375 CURVE SMOOTH",
"693 476 OFFCURVE",
"693 568 OFFCURVE",
"703 664 CURVE",
"698 670 LINE",
"566 670 LINE",
"380 63 LINE"
);
}
);
width = 753;
}
);
unicode = 004D;
},
{
color = (99,255,210,255);
glyphname = N;
layers = (
{
anchors = (
{
name = top;
position = "{276, 670}";
}
);
background = {
paths = (
{
closed = 1;
nodes = (
"270 398 OFFCURVE",
"179 400 OFFCURVE",
"171 400 CURVE",
"171 311 LINE",
"181 311 OFFCURVE",
"268 313 OFFCURVE",
"351 313 CURVE SMOOTH",
"434 313 OFFCURVE",
"522 311 OFFCURVE",
"532 311 CURVE",
"532 400 LINE",
"524 400 OFFCURVE",
"432 398 OFFCURVE",
"351 398 CURVE SMOOTH"
);
},
{
closed = 1;
nodes = (
"100 632 OFFCURVE",
"111 446 OFFCURVE",
"110 352 CURVE SMOOTH",
"109 258 OFFCURVE",
"100 10 OFFCURVE",
"100 10 CURVE",
"105 0 LINE",
"205 0 LINE",
"210 10 LINE",
"210 10 OFFCURVE",
"200 259 OFFCURVE",
"200 352 CURVE SMOOTH",
"200 445 OFFCURVE",
"203 618 OFFCURVE",
"203 618 CURVE",
"203 657 OFFCURVE",
"186 680 OFFCURVE",
"139 680 CURVE",
"105 680 OFFCURVE",
"72 670 OFFCURVE",
"40 661 CURVE",
"47 589 LINE",
"119 595 LINE",
"100 632 LINE"
);
},
{
closed = 1;
nodes = (
"599 0 LINE",
"599 3 OFFCURVE",
"604 7 OFFCURVE",
"604 12 CURVE SMOOTH",
"603 82 OFFCURVE",
"594 260 OFFCURVE",
"594 352 CURVE SMOOTH",
"594 444 OFFCURVE",
"604 660 OFFCURVE",
"604 660 CURVE",
"599 670 LINE",
"499 670 LINE",
"494 660 LINE",
"494 660 OFFCURVE",
"504 445 OFFCURVE",
"504 352 CURVE SMOOTH",
"504 259 OFFCURVE",
"498 77 OFFCURVE",
"499 11 CURVE",
"501 7 OFFCURVE",
"502 3 OFFCURVE",
"504 0 CURVE"
);
}
);
};
layerId = master01;
paths = (
{
closed = 1;
nodes = (
"507 107 LINE",
"461 205 LINE",
"148 670 LINE",
"55 670 LINE",
"50 664 LINE",
"54 637 OFFCURVE",
"65 476 OFFCURVE",
"65 375 CURVE SMOOTH",
"65 175 OFFCURVE",
"55 42 OFFCURVE",
"55 10 CURVE",
"60 0 LINE",
"164 0 LINE",
"169 10 LINE",
"159.331 113.139 OFFCURVE",
"150 192.75 OFFCURVE",
"150 440 CURVE",
"132 618 LINE",
"119 569 LINE",
"162 482 LINE",
"480 0 LINE",
"561 0 LINE",
"566 6 LINE",
"562 35 OFFCURVE",
"553 212 OFFCURVE",
"553 322 CURVE SMOOTH",
"553 569 OFFCURVE",
"556 617 OFFCURVE",
"563 660 CURVE",
"558 670 LINE",
"463 670 LINE",
"458 660 LINE",
"463.731 591.228 OFFCURVE",
"468 526 OFFCURVE",
"468 278 CURVE",
"481 59 LINE"
);
}
);
userData = {
com.schriftgestaltung.Glyphs.lastChange = "2021-09-01 03:32:16 +0000";
};
width = 616;
}
);
unicode = 004E;
},
{
color = (99,255,210,255);
glyphname = O;
layers = (
{
background = {
paths = (
{
closed = 1;
nodes = (
"-16 575 OFFCURVE",
"131 680 OFFCURVE",
"283 680 CURVE SMOOTH",
"436 680 OFFCURVE",
"583 575 OFFCURVE",
"583 333 CURVE SMOOTH",
"583 95 OFFCURVE",
"436 -10 OFFCURVE",
"283 -10 CURVE SMOOTH",
"131 -10 OFFCURVE",
"-16 95 OFFCURVE",
"-16 333 CURVE SMOOTH"
);
},
{
closed = 1;
nodes = (
"370 91 OFFCURVE",
"474 143 OFFCURVE",
"474 333 CURVE SMOOTH",
"474 526 OFFCURVE",
"370 580 OFFCURVE",
"283 580 CURVE SMOOTH",
"197 580 OFFCURVE",
"92 526 OFFCURVE",
"92 333 CURVE SMOOTH",
"92 143 OFFCURVE",
"197 91 OFFCURVE",
"283 91 CURVE SMOOTH"
);
}
);
};
layerId = master01;
paths = (
{
closed = 1;
nodes = (
"471 80 OFFCURVE",
"540 169.51 OFFCURVE",
"540 335 CURVE SMOOTH",
"540 500.49 OFFCURVE",
"471 590 OFFCURVE",
"345 590 CURVE SMOOTH",
"219 590 OFFCURVE",
"150 500 OFFCURVE",
"150 335 CURVE SMOOTH",
"150 170 OFFCURVE",
"219 80 OFFCURVE",
"345 80 CURVE SMOOTH"
);
},
{
closed = 1;
nodes = (
"161 -10 OFFCURVE",
"50 120 OFFCURVE",
"50 335 CURVE SMOOTH",
"50 550 OFFCURVE",
"161 680 OFFCURVE",
"345 680 CURVE SMOOTH",
"529 680 OFFCURVE",
"640 550 OFFCURVE",
"640 335 CURVE SMOOTH",
"640 120 OFFCURVE",
"529 -10 OFFCURVE",
"345 -10 CURVE SMOOTH"
);
}
);
userData = {
com.schriftgestaltung.Glyphs.lastChange = "2021-09-01 02:41:32 +0000";
};
width = 690;
}
);
unicode = 004F;
},
{
color = (99,255,210,255);
glyphname = P;
layers = (
{
background = {
paths = (
{
closed = 1;
nodes = (
"228 0 LINE SMOOTH",
"379 0 OFFCURVE",
"469 62 OFFCURVE",
"469 191 CURVE SMOOTH",
"469 320 OFFCURVE",
"379 379 OFFCURVE",
"210 364 CURVE",
"231 359 LINE",
"342 366 OFFCURVE",
"423 421 OFFCURVE",
"423 516 CURVE",
"423 614 OFFCURVE",
"347 675 OFFCURVE",
"225 675 CURVE SMOOTH",
"58 675 LINE",
"53 666 LINE",
"57 569 OFFCURVE",
"58 459 OFFCURVE",
"58 348 CURVE SMOOTH",
"58 232 OFFCURVE",
"57 115 OFFCURVE",
"53 12 CURVE",
"58 0 LINE"
);
},
{
closed = 1;
nodes = (
"83 85 LINE",
"153 66 LINE",
"150 159 OFFCURVE",
"148 250 OFFCURVE",
"148 349 CURVE SMOOTH",
"148 431 OFFCURVE",
"150 521 OFFCURVE",
"153 617 CURVE",
"123 590 LINE",
"206 590 LINE SMOOTH",
"287 590 OFFCURVE",
"323 563 OFFCURVE",
"323 494 CURVE SMOOTH",
"323 437 OFFCURVE",
"285 388 OFFCURVE",
"196 388 CURVE SMOOTH",
"127 388 LINE",
"127 316 LINE",
"200 318 LINE SMOOTH",
"308 321 OFFCURVE",
"369 285 OFFCURVE",
"369 203 CURVE SMOOTH",
"369 121 OFFCURVE",
"317 85 OFFCURVE",
"198 85 CURVE SMOOTH"
);
}
);
};
layerId = master01;
paths = (
{
closed = 1;
nodes = (
"150 242 OFFCURVE",
"165 10 OFFCURVE",
"165 10 CURVE",
"160 0 LINE",
"55 0 LINE",
"50 10 LINE",
"50 10 OFFCURVE",
"60 238 OFFCURVE",
"60 343 CURVE",
"60 444 OFFCURVE",
"50 665 OFFCURVE",
"50 665 CURVE",
"55 675 LINE",
"206 675 LINE SMOOTH",
"363 675 OFFCURVE",
"445 606 OFFCURVE",
"445 459 CURVE SMOOTH",
"445 312 OFFCURVE",
"343 225 OFFCURVE",
"202 225 CURVE SMOOTH",
"123 225 LINE",
"123 305 LINE",
"197 305 LINE SMOOTH",
"298 305 OFFCURVE",
"352 341 OFFCURVE",
"352 457 CURVE SMOOTH",
"352 546 OFFCURVE",
"303.662 590 OFFCURVE",
"206 590 CURVE SMOOTH",
"106 590 LINE",
"156 627 LINE",
"153 540 OFFCURVE",
"150 444 OFFCURVE",
"150 343 CURVE"
);
}
);
userData = {
com.schriftgestaltung.Glyphs.lastChange = "2021-09-01 02:44:35 +0000";
};
width = 465;
}
);
unicode = 0050;
},
{
color = (99,255,210,255);
glyphname = Q;
layers = (
{
layerId = master01;
paths = (
{
closed = 1;
nodes = (
"471 80 OFFCURVE",
"540 170 OFFCURVE",
"540 335 CURVE SMOOTH",
"540 500 OFFCURVE",
"471 590 OFFCURVE",
"345 590 CURVE SMOOTH",
"219 590 OFFCURVE",
"150 500 OFFCURVE",
"150 335 CURVE SMOOTH",
"150 170 OFFCURVE",
"219 80 OFFCURVE",
"345 80 CURVE SMOOTH"
);
},
{
closed = 1;
nodes = (
"161 -10 OFFCURVE",
"50 120 OFFCURVE",
"50 335 CURVE SMOOTH",
"50 550 OFFCURVE",
"161 680 OFFCURVE",
"345 680 CURVE SMOOTH",
"529 680 OFFCURVE",
"640 550 OFFCURVE",
"640 335 CURVE SMOOTH",
"640 120 OFFCURVE",
"529 -10 OFFCURVE",
"345 -10 CURVE SMOOTH"
);
},
{
closed = 1;
nodes = (
"316 0 LINE",
"378 22 LINE",
"524 -157 LINE",
"521 -170 LINE",
"425 -227 LINE",
"406 -223 LINE"
);
}
);
userData = {
com.schriftgestaltung.Glyphs.lastChange = "2021-09-01 03:13:59 +0000";
};
width = 690;
}
);
unicode = 0051;
},
{
glyphname = R;
lastChange = "2021-09-12 21:03:03 +0000";
layers = (
{
layerId = master01;
paths = (
{
closed = 1;
nodes = (
"153 0 LINE",
"158 10 LINE",
"158 10 OFFCURVE",
"143 242 OFFCURVE",
"143 343 CURVE",
"143 444 OFFCURVE",
"146 540 OFFCURVE",
"149 627 CURVE",
"99 590 LINE",
"199 590 LINE SMOOTH",
"297 590 OFFCURVE",
"345 546 OFFCURVE",
"345 457 CURVE SMOOTH",
"345 341 OFFCURVE",
"291 305 OFFCURVE",
"190 305 CURVE SMOOTH",
"116 305 LINE",
"116 225 LINE",
"195 225 LINE SMOOTH",
"335 225 OFFCURVE",
"438 312 OFFCURVE",
"438 459 CURVE SMOOTH",
"438 606 OFFCURVE",
"356 675 OFFCURVE",
"199 675 CURVE SMOOTH",
"48 675 LINE",
"43 665 LINE",
"43 665 OFFCURVE",
"53 444 OFFCURVE",
"53 343 CURVE",
"53 238 OFFCURVE",
"43 10 OFFCURVE",
"43 10 CURVE",
"48 0 LINE"
);
},
{
closed = 1;
nodes = (
"452 -8 OFFCURVE",
"474 7 OFFCURVE",
"522 37 CURVE",
"502 89 LINE",
"405 78 LINE",
"437 56 LINE",
"405 117 OFFCURVE",
"336 253 OFFCURVE",
"313 312 CURVE",
"239 282 LINE",
"313 102 OFFCURVE",
"330 -8 OFFCURVE",
"413 -8 CURVE SMOOTH"
);
}
);
width = 562;
}
);
unicode = 0052;
changeCount = 27;
},
{
color = (99,255,210,255);
glyphname = T;
layers = (
{
layerId = master01;
paths = (
{
closed = 1;
nodes = (
"176 600 OFFCURVE",
"176 600 CURVE",
"272 600 LINE",
"272 600 OFFCURVE",
"272 455 OFFCURVE",
"272 347 CURVE SMOOTH",
"272 239 OFFCURVE",
"285 6 OFFCURVE",
"285 6 CURVE",
"280 -4 LINE",
"168 -4 LINE",
"163 6 LINE",
"163 6 OFFCURVE",
"176 238 OFFCURVE",
"176 348 CURVE SMOOTH",
"176 458 OFFCURVE"
);
},
{
closed = 1;
nodes = (
"102 582 OFFCURVE",
"20 571 OFFCURVE",
"20 571 CURVE",
"10 576 LINE",
"10 665 LINE",
"20 670 LINE",
"20 670 OFFCURVE",
"125 667 OFFCURVE",
"225 667 CURVE SMOOTH",
"327 667 OFFCURVE",
"428 670 OFFCURVE",
"428 670 CURVE",
"438 665 LINE",
"438 576 LINE",
"428 571 LINE",
"428 571 OFFCURVE",
"348 582 OFFCURVE",
"225 582 CURVE SMOOTH"
);
}
);
userData = {
com.schriftgestaltung.Glyphs.lastChange = "2021-09-01 03:08:55 +0000";
};
width = 448;
}
);
unicode = 0054;
},
{
color = (99,255,210,255);
glyphname = U;
layers = (
{
background = {
paths = (
{
closed = 1;
nodes = (
"270 398 OFFCURVE",
"179 400 OFFCURVE",
"171 400 CURVE",
"171 311 LINE",
"181 311 OFFCURVE",
"268 313 OFFCURVE",
"351 313 CURVE SMOOTH",
"434 313 OFFCURVE",
"522 311 OFFCURVE",
"532 311 CURVE",
"532 400 LINE",
"524 400 OFFCURVE",
"432 398 OFFCURVE",
"351 398 CURVE SMOOTH"
);
},
{
closed = 1;
nodes = (
"100 632 OFFCURVE",
"111 446 OFFCURVE",
"110 352 CURVE SMOOTH",
"109 258 OFFCURVE",
"100 10 OFFCURVE",
"100 10 CURVE",
"105 0 LINE",
"205 0 LINE",
"210 10 LINE",
"210 10 OFFCURVE",
"200 259 OFFCURVE",
"200 352 CURVE SMOOTH",
"200 445 OFFCURVE",
"203 618 OFFCURVE",
"203 618 CURVE",
"203 657 OFFCURVE",
"186 680 OFFCURVE",
"139 680 CURVE",
"105 680 OFFCURVE",
"72 670 OFFCURVE",
"40 661 CURVE",
"47 589 LINE",
"119 595 LINE",
"100 632 LINE"
);
},
{
closed = 1;
nodes = (
"599 0 LINE",
"599 3 OFFCURVE",
"604 7 OFFCURVE",
"604 12 CURVE SMOOTH",
"603 82 OFFCURVE",
"594 260 OFFCURVE",
"594 352 CURVE SMOOTH",
"594 444 OFFCURVE",
"604 660 OFFCURVE",
"604 660 CURVE",
"599 670 LINE",
"499 670 LINE",
"494 660 LINE",
"494 660 OFFCURVE",
"504 445 OFFCURVE",
"504 352 CURVE SMOOTH",
"504 259 OFFCURVE",
"498 77 OFFCURVE",
"499 11 CURVE",
"501 7 OFFCURVE",
"502 3 OFFCURVE",
"504 0 CURVE"
);
}
);
};
layerId = master01;
paths = (
{
closed = 1;
nodes = (
"137 -10 OFFCURVE",
"60 73.935 OFFCURVE",
"60 276 CURVE SMOOTH",
"60 660 LINE",
"69 670 LINE",
"151 670 LINE",
"160 661 LINE",
"160 266 LINE SMOOTH",
"160 143.591 OFFCURVE",
"210 75 OFFCURVE",
"325 75 CURVE",
"411 75 OFFCURVE",
"468 139 OFFCURVE",
"468 274 CURVE SMOOTH",
"468 661 LINE",
"477 670 LINE",
"554 670 LINE",
"563 660 LINE",
"563 288 LINE SMOOTH",
"563 107 OFFCURVE",
"478 -10 OFFCURVE",
"319 -10 CURVE"
);
}
);
userData = {
com.schriftgestaltung.Glyphs.lastChange = "2021-09-01 03:16:11 +0000";
};
width = 623;
}
);
unicode = 0055;
},
{
color = (99,255,210,255);
glyphname = V;
layers = (
{
background = {
paths = (
{
closed = 1;
nodes = (
"137 -10 OFFCURVE",
"60 74 OFFCURVE",
"60 276 CURVE SMOOTH",
"60 660 LINE",
"69 670 LINE",
"151 670 LINE",
"160 661 LINE",
"160 266 LINE SMOOTH",
"160 144 OFFCURVE",
"210 75 OFFCURVE",
"325 75 CURVE",
"411 75 OFFCURVE",
"468 139 OFFCURVE",
"468 274 CURVE SMOOTH",
"468 661 LINE",
"477 670 LINE",
"554 670 LINE",
"563 660 LINE",
"563 288 LINE SMOOTH",
"563 107 OFFCURVE",
"478 -10 OFFCURVE",
"319 -10 CURVE"
);
}
);
};
layerId = master01;
paths = (
{
closed = 1;
nodes = (
"341 10 LINE",
"335 0 LINE",
"226 0 LINE",
"226 0 OFFCURVE",
"220 10 OFFCURVE",
"220 10 CURVE",
"5 660 LINE",
"10 670 LINE",
"10 670 OFFCURVE",
"110 670 OFFCURVE",
"110 670 CURVE",
"116 660 LINE",
"116 660 OFFCURVE",
"164 484 OFFCURVE",
"198 373 CURVE SMOOTH",
"234 258 OFFCURVE",
"308 53 OFFCURVE",
"308 53 CURVE",
"279 53 LINE",
"279 53 OFFCURVE",
"324 221 OFFCURVE",
"360 369 CURVE SMOOTH",
"396 516 OFFCURVE",
"421 662 OFFCURVE",
"421 662 CURVE",
"428 670 LINE",
"428 670 OFFCURVE",
"522 670 OFFCURVE",
"522 670 CURVE",
"528 660 LINE"
);
}
);
width = 533;
}
);
unicode = 0056;
},
{
color = (99,255,210,255);
glyphname = a;
layers = (
{
anchors = (
{
name = top;
position = "{288, 510}";
}
);
background = {
paths = (
{
closed = 1;
nodes = (
"25 430 OFFCURVE",
"95 520 OFFCURVE",
"239 520 CURVE SMOOTH",
"373 520 OFFCURVE",
"432 422 OFFCURVE",
"425 304 CURVE SMOOTH",
"421 241 LINE",
"410 228 LINE",
"297 228 OFFCURVE",
"196 228 OFFCURVE",
"83 228 CURVE",
"78 299 LINE",
"345 299 LINE",
"335 288 LINE",
"335 410 OFFCURVE",
"298 445 OFFCURVE",
"230 445 CURVE SMOOTH",
"155 445 OFFCURVE",
"115 396 OFFCURVE",
"115 253 CURVE SMOOTH",
"115 110 OFFCURVE",
"154 65 OFFCURVE",
"250 65 CURVE",
"297 65 OFFCURVE",
"336 79 OFFCURVE",
"383 96 CURVE",
"390 95 LINE",
"410 51 LINE",
"409 44 LINE",
"357 14 OFFCURVE",
"305 -10 OFFCURVE",
"236 -10 CURVE SMOOTH",
"95 -10 OFFCURVE",
"25 76 OFFCURVE",
"25 253 CURVE SMOOTH"
);
}
);
};
layerId = master01;
paths = (
{
closed = 1;
nodes = (
"441 -9 OFFCURVE",
"473 -4 OFFCURVE",
"493 0 CURVE",
"497 65 LINE",
"396 85 LINE",
"445 37 LINE",
"445 341 LINE SMOOTH",
"445 470 OFFCURVE",
"367 520 OFFCURVE",
"265 520 CURVE",
"204 520 OFFCURVE",
"147 507 OFFCURVE",
"90 492 CURVE",
"89 488 LINE",
"104 426 LINE",
"107 426 LINE",
"156 436 OFFCURVE",
"198 445 OFFCURVE",
"239 445 CURVE SMOOTH",
"310 445 OFFCURVE",
"360 419 OFFCURVE",
"360 344 CURVE SMOOTH",
"360 57 LINE SMOOTH",
"360 12 OFFCURVE",
"373 -9 OFFCURVE",
"423 -9 CURVE SMOOTH"
);
},
{
closed = 1;
nodes = (
"120 287 OFFCURVE",
"55 235 OFFCURVE",
"55 143 CURVE SMOOTH",
"55 53 OFFCURVE",
"120 -10 OFFCURVE",
"211 -10 CURVE",
"297 -10 OFFCURVE",
"354 41 OFFCURVE",
"371 106 CURVE",
"336 70 LINE",
"378 70 LINE",
"360 201 LINE",
"360 114 OFFCURVE",
"320 65 OFFCURVE",
"234 65 CURVE SMOOTH",
"183 65 OFFCURVE",
"145 95 OFFCURVE",
"145 149 CURVE",
"145 196 OFFCURVE",
"165 228 OFFCURVE",
"240 228 CURVE SMOOTH",
"373 228 LINE",
"373 287 LINE",
"221 287 LINE SMOOTH"
);
}
);
userData = {
com.schriftgestaltung.Glyphs.lastChange = "2021-09-01 02:53:50 +0000";
};
width = 542;
}
);
unicode = 0061;
},
{
color = (99,255,210,255);
glyphname = b;
layers = (
{
background = {
paths = (
{
closed = 1;
nodes = (
"190 374 OFFCURVE",
"229 440 OFFCURVE",
"309 440 CURVE",
"391 440 OFFCURVE",
"415 394 OFFCURVE",
"415 275 CURVE",
"415 196 OFFCURVE",
"411 120 OFFCURVE",
"411 65 CURVE SMOOTH",
"411 13 OFFCURVE",
"435 -10 OFFCURVE",
"467 -10 CURVE",
"490 -10 OFFCURVE",
"521 -5 OFFCURVE",
"548 -1 CURVE",
"552 64 LINE",
"458 83 LINE",
"500 32 LINE",
"500 365 LINE SMOOTH",
"500 471 OFFCURVE",
"441 520 OFFCURVE",
"345 520 CURVE",
"243 520 OFFCURVE",
"190 448 OFFCURVE",
"177 395 CURVE",
"214 439 LINE",
"180 439 LINE",
"190 413 LINE",
"190 718 LINE SMOOTH",
"190 759 OFFCURVE",
"176 780 OFFCURVE",
"135 780 CURVE",
"109 780 OFFCURVE",
"75 772 OFFCURVE",
"46 765 CURVE",
"53 700 LINE",
"114 703 LINE",
"95 732 LINE",
"95 732 OFFCURVE",
"105 600 OFFCURVE",
"105 372 CURVE",
"105 84 OFFCURVE",
"95 10 OFFCURVE",
"95 10 CURVE",
"100 0 LINE",
"195 0 LINE",
"200 10 LINE",
"200 10 OFFCURVE",
"190 82 OFFCURVE",
"190 251 CURVE SMOOTH"
);
}
);
};
layerId = master01;
paths = (
{
closed = 1;
nodes = (
"96 732 OFFCURVE",
"106 660 OFFCURVE",
"106 389 CURVE SMOOTH",
"106 118 OFFCURVE",
"96 10 OFFCURVE",
"96 10 CURVE",
"101 0 LINE",
"146 0 LINE",
"181 72 LINE",
"191 72 LINE",
"191 699 LINE SMOOTH",
"191 762 OFFCURVE",
"177 780 OFFCURVE",
"138 780 CURVE SMOOTH",
"103 780 OFFCURVE",
"69 771 OFFCURVE",
"45 765 CURVE",
"52 700 LINE",
"115 703 LINE",
"96 732 LINE"
);
},
{
closed = 1;
nodes = (
"412 113 OFFCURVE",
"372 75 OFFCURVE",
"311 75 CURVE",
"254 75 OFFCURVE",
"209 100 OFFCURVE",
"170 122 CURVE",
"158 74 LINE",
"186 74 LINE",
"222 19 OFFCURVE",
"260 -10 OFFCURVE",
"334 -10 CURVE",
"445 -10 OFFCURVE",
"507 94 OFFCURVE",
"507 258 CURVE SMOOTH",
"507 283 LINE SMOOTH",
"507 450 OFFCURVE",
"454 520 OFFCURVE",
"342 520 CURVE",
"269 520 OFFCURVE",
"225 485 OFFCURVE",
"196 439 CURVE",
"168 439 LINE",
"191 255 LINE",
"191 396 OFFCURVE",
"244 440 OFFCURVE",
"309 440 CURVE SMOOTH",
"373 440 OFFCURVE",
"412 410 OFFCURVE",
"412 281 CURVE SMOOTH",
"412 258 LINE SMOOTH"
);
}
);
userData = {
com.schriftgestaltung.Glyphs.lastChange = "2021-09-01 02:41:01 +0000";
};
width = 562;
}
);
unicode = 0062;
},
{
color = (99,255,210,255);
glyphname = c;
layers = (
{
background = {
paths = (
{
closed = 1;
nodes = (
"51 430 OFFCURVE",
"121 520 OFFCURVE",
"265 520 CURVE SMOOTH",
"399 520 OFFCURVE",
"458 422 OFFCURVE",
"451 304 CURVE SMOOTH",
"447 241 LINE",
"436 228 LINE",
"323 228 OFFCURVE",
"222 228 OFFCURVE",
"109 228 CURVE",
"104 299 LINE",
"371 299 LINE",
"361 288 LINE",
"361 410 OFFCURVE",
"324 445 OFFCURVE",
"256 445 CURVE SMOOTH",
"181 445 OFFCURVE",
"141 396 OFFCURVE",
"141 253 CURVE SMOOTH",
"141 110 OFFCURVE",
"180 65 OFFCURVE",
"276 65 CURVE",
"323 65 OFFCURVE",
"362 79 OFFCURVE",
"409 96 CURVE",
"416 95 LINE",
"436 51 LINE",
"435 44 LINE",
"383 14 OFFCURVE",
"331 -10 OFFCURVE",
"262 -10 CURVE SMOOTH",
"121 -10 OFFCURVE",
"51 76 OFFCURVE",
"51 253 CURVE SMOOTH"
);
}
);
};
layerId = master01;
paths = (
{
closed = 1;
nodes = (
"55 431 OFFCURVE",
"123 520 OFFCURVE",
"267 520 CURVE SMOOTH",
"390 520 OFFCURVE",
"439 446 OFFCURVE",
"439 339 CURVE",
"437 337 LINE",
"365 332 LINE",
"363 334 LINE",
"349 410 OFFCURVE",
"327 445 OFFCURVE",
"262 445 CURVE",
"188 445 OFFCURVE",
"145 400 OFFCURVE",
"145 258 CURVE SMOOTH",
"145 121 OFFCURVE",
"182 65 OFFCURVE",
"270 65 CURVE",
"333 65 OFFCURVE",
"371 79 OFFCURVE",
"416 97 CURVE",
"419 96 LINE",
"443 45 LINE",
"442 42 LINE",
"393 13 OFFCURVE",
"335 -10 OFFCURVE",
"255 -10 CURVE",
"124 -10 OFFCURVE",
"55 73 OFFCURVE",
"55 254 CURVE SMOOTH"
);
}
);
userData = {
com.schriftgestaltung.Glyphs.lastChange = "2021-09-01 03:39:27 +0000";
};
width = 488;
}
);
leftMetricsKey = "=o";
unicode = 0063;
},
{
color = (99,255,210,255);
glyphname = d;
layers = (
{
background = {
paths = (
{
closed = 1;
nodes = (
"427 703 LINE",
"490 700 LINE",
"497 765 LINE",
"473 771 OFFCURVE",
"439 780 OFFCURVE",
"404 780 CURVE SMOOTH",
"365 780 OFFCURVE",
"351 762 OFFCURVE",
"351 699 CURVE SMOOTH",
"351 72 LINE",
"361 72 LINE",
"396 0 LINE",
"441 0 LINE",
"446 10 LINE",
"446 10 OFFCURVE",
"436 118 OFFCURVE",
"436 389 CURVE SMOOTH",
"436 660 OFFCURVE",
"446 732 OFFCURVE",
"446 732 CURVE"
);
},
{
closed = 1;
nodes = (
"130 397 OFFCURVE",
"170 435 OFFCURVE",
"231 435 CURVE",
"288 435 OFFCURVE",
"333 410 OFFCURVE",
"372 388 CURVE",
"384 436 LINE",
"356 436 LINE",
"320 491 OFFCURVE",
"282 520 OFFCURVE",
"208 520 CURVE",
"97 520 OFFCURVE",
"35 416 OFFCURVE",
"35 252 CURVE SMOOTH",
"35 227 LINE SMOOTH",
"35 60 OFFCURVE",
"88 -10 OFFCURVE",
"200 -10 CURVE",
"273 -10 OFFCURVE",
"317 25 OFFCURVE",
"346 71 CURVE",
"374 71 LINE",
"351 255 LINE",
"351 114 OFFCURVE",
"298 70 OFFCURVE",
"233 70 CURVE SMOOTH",
"169 70 OFFCURVE",
"130 100 OFFCURVE",
"130 229 CURVE SMOOTH",
"130 252 LINE SMOOTH"
);
}
);
};
layerId = master01;
paths = (
{
closed = 1;
nodes = (
"368 637 OFFCURVE",
"370 531 OFFCURVE",
"370 276 CURVE",
"370 129 OFFCURVE",
"328 70 OFFCURVE",
"247 70 CURVE SMOOTH",
"184 70 OFFCURVE",
"150 120 OFFCURVE",
"150 245 CURVE SMOOTH",
"150 270 LINE SMOOTH",
"150 393 OFFCURVE",
"188 440 OFFCURVE",
"253 440 CURVE SMOOTH",
"301 440 OFFCURVE",
"348 419 OFFCURVE",
"392 392 CURVE",
"392 442 LINE",
"346 442 LINE",
"370 429 LINE",
"357 478 OFFCURVE",
"310 520 OFFCURVE",
"237 520 CURVE SMOOTH",
"140 520 OFFCURVE",
"55 459 OFFCURVE",
"55 265 CURVE SMOOTH",
"55 240 LINE SMOOTH",
"55 69 OFFCURVE",
"120 -9 OFFCURVE",
"225 -9 CURVE SMOOTH",
"319 -9 OFFCURVE",
"373 59 OFFCURVE",
"381 121 CURVE",
"344 72 LINE",
"402 72 LINE",
"369 93 LINE",
"369 57 LINE SMOOTH",
"369 12 OFFCURVE",
"380 -9 OFFCURVE",
"415 -9 CURVE SMOOTH",
"436 -9 OFFCURVE",
"480 -5 OFFCURVE",
"503 0 CURVE",
"507 65 LINE",
"414 84 LINE",
"455 37 LINE",
"455 322 LINE SMOOTH",
"455 574 OFFCURVE",
"460 667 OFFCURVE",
"460 718 CURVE",
"460 760 OFFCURVE",
"445 780 OFFCURVE",
"404 780 CURVE SMOOTH",
"368 780 OFFCURVE",
"325 769 OFFCURVE",
"287 761 CURVE",
"294 696 LINE",
"384 700 LINE",
"360 723 LINE"
);
}
);
userData = {
com.schriftgestaltung.Glyphs.lastChange = "2021-09-01 02:30:07 +0000";
};
width = 552;
}
);
leftMetricsKey = "=o";
unicode = 0064;
},
{
color = (99,255,210,255);
glyphname = e;
layers = (
{
background = {
paths = (
{
closed = 1;
nodes = (
"314 65 OFFCURVE",
"351 126 OFFCURVE",
"351 255 CURVE SMOOTH",
"351 384 OFFCURVE",
"314 445 OFFCURVE",
"234 445 CURVE SMOOTH",
"155 445 OFFCURVE",
"118 384 OFFCURVE",
"118 255 CURVE SMOOTH",
"118 126 OFFCURVE",
"155 65 OFFCURVE",
"234 65 CURVE SMOOTH"
);
},
{
closed = 1;
nodes = (
"98 -10 OFFCURVE",
"28 80 OFFCURVE",
"28 255 CURVE SMOOTH",
"28 430 OFFCURVE",
"98 520 OFFCURVE",
"234 520 CURVE SMOOTH",
"371 520 OFFCURVE",
"441 430 OFFCURVE",
"441 255 CURVE SMOOTH",
"441 80 OFFCURVE",
"371 -10 OFFCURVE",
"234 -10 CURVE SMOOTH"
);
}
);
};
layerId = master01;
paths = (
{
closed = 1;
nodes = (
"55 430 OFFCURVE",
"125 520 OFFCURVE",
"269 520 CURVE SMOOTH",
"403 520 OFFCURVE",
"462 422 OFFCURVE",
"455 304 CURVE SMOOTH",
"451 241 LINE",
"440 228 LINE",
"327 228 OFFCURVE",
"226 228 OFFCURVE",
"113 228 CURVE",
"108 299 LINE",
"375 299 LINE",
"365 288 LINE",
"365 410 OFFCURVE",
"328 445 OFFCURVE",
"260 445 CURVE SMOOTH",
"185 445 OFFCURVE",
"145 396 OFFCURVE",
"145 253 CURVE SMOOTH",
"145 110 OFFCURVE",
"184 65 OFFCURVE",
"280 65 CURVE",
"327 65 OFFCURVE",
"366 79 OFFCURVE",
"413 96 CURVE",
"420 95 LINE",
"440 51 LINE",
"439 44 LINE",
"387 14 OFFCURVE",
"335 -10 OFFCURVE",
"266 -10 CURVE SMOOTH",
"125 -10 OFFCURVE",
"55 76 OFFCURVE",
"55 253 CURVE SMOOTH"
);
}
);
userData = {
com.schriftgestaltung.Glyphs.lastChange = "2021-09-01 02:49:54 +0000";
};
width = 501;
}
);
leftMetricsKey = "=o";
unicode = 0065;
},
{
color = (99,255,210,255);
glyphname = f;
layers = (
{
background = {
paths = (
{
closed = 1;
nodes = (
"109 16 OFFCURVE",
"131 -10 OFFCURVE",
"167 -10 CURVE",
"204 -10 OFFCURVE",
"236 -5 OFFCURVE",
"269 0 CURVE",
"273 64 LINE",
"195 79 LINE",
"213 52 LINE",
"210 130 OFFCURVE",
"203 163 OFFCURVE",
"203 384 CURVE SMOOTH",
"203 605 OFFCURVE",
"208 675 OFFCURVE",
"208 718 CURVE",
"208 757 OFFCURVE",
"192 780 OFFCURVE",
"147 780 CURVE",
"115 780 OFFCURVE",
"76 770 OFFCURVE",
"45 762 CURVE",
"53 699 LINE",
"128 703 LINE",
"107 732 LINE",
"107 732 OFFCURVE",
"118 604 OFFCURVE",
"118 384 CURVE SMOOTH",
"118 164 OFFCURVE",
"109 134 OFFCURVE",
"109 61 CURVE SMOOTH"
);
},
{
closed = 1;
nodes = (
"149 520 LINE",
"149 620 OFFCURVE",
"206 698 OFFCURVE",
"344 667 CURVE",
"364 767 LINE",
"352 772 OFFCURVE",
"324 780 OFFCURVE",
"292 780 CURVE",
"219 780 OFFCURVE",
"181 751 OFFCURVE",
"154 669 CURVE",
"144 669 LINE",
"144 522 LINE"
);
},
{
closed = 1;
nodes = (
"54 732 OFFCURVE",
"64 675 OFFCURVE",
"64 535 CURVE SMOOTH",
"64 337 OFFCURVE",
"54 270 OFFCURVE",
"54 270 CURVE",
"59 260 LINE",
"154 260 LINE",
"159 270 LINE",
"159 270 OFFCURVE",
"149 347 OFFCURVE",
"149 528 CURVE",
"149 608 OFFCURVE",
"149 718 OFFCURVE",
"149 718 CURVE",
"149 757 OFFCURVE",
"136 780 OFFCURVE",
"98 780 CURVE",
"70 780 OFFCURVE",
"37 773 OFFCURVE",
"5 765 CURVE",
"12 700 LINE",
"73 703 LINE",
"54 732 LINE"
);
}
);
};
guideLines = (
{
angle = 90;
position = "{236, 686}";
}
);
layerId = master01;
paths = (
{
closed = 1;
nodes = (
"204 0 LINE",
"214 10 LINE",
"209 70 OFFCURVE",
"204 135 OFFCURVE",
"204 265 CURVE SMOOTH",
"204 594 LINE SMOOTH",
"204 669 OFFCURVE",
"220 705 OFFCURVE",
"279 705 CURVE SMOOTH",
"300 705 OFFCURVE",
"327.179 701.759 OFFCURVE",
"356 694 CURVE",
"361 697 LINE",
"376 757 LINE",
"374 761 LINE",
"354.459 768.199 OFFCURVE",
"323.419 780 OFFCURVE",
"278 780 CURVE SMOOTH",
"162 780 OFFCURVE",
"119 703 OFFCURVE",
"119 612 CURVE SMOOTH",
"119 265 LINE SMOOTH",
"119 133 OFFCURVE",
"113 67 OFFCURVE",
"109 10 CURVE",
"117 0 LINE"
);
},
{
closed = 1;
nodes = (
"97 446 OFFCURVE",
"137 447 OFFCURVE",
"185 447 CURVE",
"219.443 447 OFFCURVE",
"265.727 446.076 OFFCURVE",
"326 445 CURVE",
"333 452 LINE",
"333 505 LINE",
"326 510 LINE",
"47 510 LINE",
"40 503 LINE",
"40 452 LINE",
"47 445 LINE"
);
}
);
userData = {
com.schriftgestaltung.Glyphs.lastChange = "2021-09-01 03:18:25 +0000";
};
width = 338;
}
);
unicode = 0066;
},
{
color = (99,255,210,255);
glyphname = g;
layers = (
{
background = {
paths = (
{
closed = 1;
nodes = (
"326 65 OFFCURVE",
"363 126 OFFCURVE",
"363 255 CURVE SMOOTH",
"363 384 OFFCURVE",
"326 445 OFFCURVE",
"246 445 CURVE SMOOTH",
"167 445 OFFCURVE",
"130 384 OFFCURVE",
"130 255 CURVE SMOOTH",
"130 126 OFFCURVE",
"167 65 OFFCURVE",
"246 65 CURVE SMOOTH"
);
},
{
closed = 1;
nodes = (
"110 -10 OFFCURVE",
"40 80 OFFCURVE",
"40 255 CURVE SMOOTH",
"40 430 OFFCURVE",
"110 520 OFFCURVE",
"246 520 CURVE SMOOTH",
"383 520 OFFCURVE",
"453 430 OFFCURVE",
"453 255 CURVE SMOOTH",
"453 80 OFFCURVE",
"383 -10 OFFCURVE",
"246 -10 CURVE SMOOTH"
);
}
);
};
layerId = master01;
paths = (
{
closed = 1;
nodes = (
"94.868 22.968 OFFCURVE",
"30 -1.063 OFFCURVE",
"30 -85 CURVE SMOOTH",
"30 -172 OFFCURVE",
"102 -220 OFFCURVE",
"253 -220 CURVE SMOOTH",
"393 -220 OFFCURVE",
"476 -166 OFFCURVE",
"476 -68 CURVE",
"476 92.152 OFFCURVE",
"168 44.206 OFFCURVE",
"168 107 CURVE",
"168 124 OFFCURVE",
"178 132 OFFCURVE",
"188 146 CURVE",
"142 163 LINE",
"114 150 OFFCURVE",
"78 127 OFFCURVE",
"78 91 CURVE",
"78 -52.427 OFFCURVE",
"386 21.724 OFFCURVE",
"386 -71 CURVE",
"386 -119 OFFCURVE",
"361 -155 OFFCURVE",
"263 -155 CURVE SMOOTH",
"165 -155 OFFCURVE",
"120 -133 OFFCURVE",
"120 -76 CURVE",
"120 -28.75 OFFCURVE",
"150 14 OFFCURVE",
"218 14 CURVE",
"148 36 LINE"
);
},
{
closed = 1;
nodes = (
"363 128 OFFCURVE",
"442 186.529 OFFCURVE",
"442 327 CURVE SMOOTH",
"442 461.515 OFFCURVE",
"362.984 520 OFFCURVE",
"246 520 CURVE SMOOTH",
"130.073 520 OFFCURVE",
"48 461.515 OFFCURVE",
"48 327 CURVE SMOOTH",
"48 194.333 OFFCURVE",
"129 128 OFFCURVE",
"246 128 CURVE SMOOTH"
);
},
{
closed = 1;
nodes = (
"163 203 OFFCURVE",
"138 236.674 OFFCURVE",
"138 330 CURVE SMOOTH",
"138 413.375 OFFCURVE",
"168.408 445 OFFCURVE",
"246 445 CURVE SMOOTH",
"323.663 445 OFFCURVE",
"352 413.375 OFFCURVE",
"352 330 CURVE SMOOTH",
"352 236.674 OFFCURVE",
"339 203 OFFCURVE",
"246 203 CURVE SMOOTH"
);
},
{
closed = 1;
nodes = (
"454 635 LINE",
"323 635 OFFCURVE",
"297 597 OFFCURVE",
"316 504 CURVE",
"355 493 LINE",
"355 505 LINE",
"471 538 LINE"
);
}
);
userData = {
com.schriftgestaltung.Glyphs.lastChange = "2021-09-01 03:11:37 +0000";
};
width = 501;
}
);
unicode = 0067;
},
{
color = (99,255,210,255);
glyphname = h;
layers = (
{
background = {
paths = (
{
closed = 1;
nodes = (
"199 384 OFFCURVE",
"228 430 OFFCURVE",
"295 430 CURVE",
"357 430 OFFCURVE",
"375 394 OFFCURVE",
"375 275 CURVE",
"375 196 OFFCURVE",
"371 120 OFFCURVE",
"371 65 CURVE SMOOTH",
"371 13 OFFCURVE",
"402 -10 OFFCURVE",
"442 -10 CURVE",
"465 -10 OFFCURVE",
"496 -5 OFFCURVE",
"523 -1 CURVE",
"527 80 LINE",
"427 100 LINE",
"475 37 LINE",
"475 383 LINE SMOOTH",
"475 477 OFFCURVE",
"437 520 OFFCURVE",
"344 520 CURVE",
"249 520 OFFCURVE",
"198 447 OFFCURVE",
"183 394 CURVE",
"219 440 LINE",
"183 440 LINE",
"199 413 LINE",
"199 688 LINE SMOOTH",
"199 729 OFFCURVE",
"183 750 OFFCURVE",
"138 750 CURVE",
"109 750 OFFCURVE",
"73 743 OFFCURVE",
"40 735 CURVE",
"47 652 LINE",
"108 655 LINE",
"89 702 LINE",
"89 702 OFFCURVE",
"96 651 OFFCURVE",
"99 401 CURVE SMOOTH",
"102 151 OFFCURVE",
"89 10 OFFCURVE",
"89 10 CURVE",
"94 0 LINE",
"204 0 LINE",
"209 10 LINE",
"209 10 OFFCURVE",
"199 89 OFFCURVE",
"199 275 CURVE SMOOTH"
);
}
);
};
layerId = master01;
paths = (
{
closed = 1;
nodes = (
"189 374 OFFCURVE",
"228 440 OFFCURVE",
"308 440 CURVE",
"390 440 OFFCURVE",
"414 394 OFFCURVE",
"414 275 CURVE",
"414 196 OFFCURVE",
"410 120 OFFCURVE",
"410 65 CURVE SMOOTH",
"410 13 OFFCURVE",
"434 -10 OFFCURVE",
"466 -10 CURVE",
"489 -10 OFFCURVE",
"520 -5 OFFCURVE",
"547 -1 CURVE",
"551 64 LINE",
"457 83 LINE",
"499 32 LINE",
"499 365 LINE SMOOTH",
"499 471 OFFCURVE",
"440 520 OFFCURVE",
"344 520 CURVE",
"242 520 OFFCURVE",
"189 448 OFFCURVE",
"176 395 CURVE",
"213 439 LINE",
"179 439 LINE",
"189 413 LINE",
"189 718 LINE SMOOTH",
"189 759 OFFCURVE",
"175 780 OFFCURVE",
"134 780 CURVE",
"108 780 OFFCURVE",
"74 772 OFFCURVE",
"45 765 CURVE",
"52 700 LINE",
"113 703 LINE",
"94 732 LINE",
"94 732 OFFCURVE",
"104 600 OFFCURVE",
"104 372 CURVE",
"104 84 OFFCURVE",
"94 10 OFFCURVE",
"94 10 CURVE",
"99 0 LINE",
"194 0 LINE",
"199 10 LINE",
"199 10 OFFCURVE",
"189 82 OFFCURVE",
"189 251 CURVE SMOOTH"
);
}
);
userData = {
com.schriftgestaltung.Glyphs.lastChange = "2021-09-01 04:59:11 +0000";
};
width = 596;
}
);
unicode = 0068;
},
{
color = (99,255,209,255);
glyphname = i;
layers = (
{
background = {
paths = (
{
closed = 1;
nodes = (
"189 374 OFFCURVE",
"220 440 OFFCURVE",
"308 440 CURVE",
"390 440 OFFCURVE",
"414 394 OFFCURVE",
"414 275 CURVE",
"414 196 OFFCURVE",
"410 120 OFFCURVE",
"410 65 CURVE SMOOTH",
"410 13 OFFCURVE",
"434 -10 OFFCURVE",
"466 -10 CURVE",
"489 -10 OFFCURVE",
"520 -5 OFFCURVE",
"547 -1 CURVE",
"551 64 LINE",
"457 83 LINE",
"499 32 LINE",
"499 365 LINE SMOOTH",
"499 471 OFFCURVE",
"440 520 OFFCURVE",
"344 520 CURVE",
"242 520 OFFCURVE",
"189 448 OFFCURVE",
"176 395 CURVE",
"213 439 LINE",
"179 439 LINE",
"189 413 LINE",
"189 458 LINE SMOOTH",
"189 499 OFFCURVE",
"175 520 OFFCURVE",
"134 520 CURVE",
"108 520 OFFCURVE",
"74 512 OFFCURVE",
"45 505 CURVE",
"52 440 LINE",
"113 443 LINE",
"94 472 LINE",
"94 472 OFFCURVE",
"104 415 OFFCURVE",
"104 275 CURVE SMOOTH",
"104 84 OFFCURVE",
"94 10 OFFCURVE",
"94 10 CURVE",
"99 0 LINE",
"194 0 LINE",
"199 10 LINE",
"199 10 OFFCURVE",
"189 82 OFFCURVE",
"189 251 CURVE SMOOTH"
);
}
);
};
layerId = master01;
paths = (
{
closed = 1;
nodes = (
"69 739 OFFCURVE",
"100 766 OFFCURVE",
"142 766 CURVE SMOOTH",
"185 766 OFFCURVE",
"214 738 OFFCURVE",
"214 696 CURVE SMOOTH",
"214 654 OFFCURVE",
"184 621 OFFCURVE",
"142 621 CURVE SMOOTH",
"96 621 OFFCURVE",
"69 654 OFFCURVE",
"69 696 CURVE"
);
},
{
closed = 1;
nodes = (
"110 472 OFFCURVE",
"120 410 OFFCURVE",
"120 275 CURVE SMOOTH",
"120 77 OFFCURVE",
"110 10 OFFCURVE",
"110 10 CURVE",
"115 0 LINE",
"210 0 LINE",
"215 10 LINE",
"215 10 OFFCURVE",
"205 77 OFFCURVE",
"205 275 CURVE SMOOTH",
"205 458 LINE SMOOTH",
"205 499 OFFCURVE",
"191 520 OFFCURVE",
"149 520 CURVE",
"120 520 OFFCURVE",
"71 510 OFFCURVE",
"45 504 CURVE",
"52 438 LINE",
"129 443 LINE",
"110 472 LINE"
);
}
);
userData = {
com.schriftgestaltung.Glyphs.lastChange = "2021-08-27 21:22:47 +0000";
};
width = 290;
}
);
unicode = 0069;
},
{
glyphname = j;
layers = (
{
layerId = master01;
paths = (
{
closed = 1;
nodes = (
"227 621 OFFCURVE",
"257 654 OFFCURVE",
"257 696 CURVE SMOOTH",
"257 738 OFFCURVE",
"228 766 OFFCURVE",
"185 766 CURVE SMOOTH",
"143 766 OFFCURVE",
"112 739 OFFCURVE",
"112 696 CURVE",
"112 654 OFFCURVE",
"139 621 OFFCURVE",
"185 621 CURVE SMOOTH"
);
},
{
closed = 1;
nodes = (
"168 430 OFFCURVE",
"172 310 OFFCURVE",
"172 245 CURVE SMOOTH",
"172 -41 LINE SMOOTH",
"172 -116 OFFCURVE",
"156 -152 OFFCURVE",
"97 -152 CURVE SMOOTH",
"76 -152 OFFCURVE",
"48 -149 OFFCURVE",
"20 -141 CURVE",
"15 -144 LINE",
"0 -204 LINE",
"2 -208 LINE",
"21 -215 OFFCURVE",
"52 -227 OFFCURVE",
"98 -227 CURVE SMOOTH",
"214 -227 OFFCURVE",
"257 -150 OFFCURVE",
"257 -59 CURVE SMOOTH",
"257 245 LINE SMOOTH",
"257 316 OFFCURVE",
"260 386 OFFCURVE",
"261 457 CURVE",
"261 498 OFFCURVE",
"247 519 OFFCURVE",
"205 519 CURVE",
"176 519 OFFCURVE",
"127 509 OFFCURVE",
"101 503 CURVE",
"108 437 LINE",
"185 442 LINE",
"166 470 LINE"
);
}
);
width = 300;
}
);
unicode = 006A;
},
{
glyphname = k;
lastChange = "2021-09-12 21:02:17 +0000";
layers = (
{
layerId = master01;
paths = (
{
closed = 1;
nodes = (
"208 -5 LINE",
"213 5 LINE",
"211 7 OFFCURVE",
"203 153 OFFCURVE",
"203 350 CURVE SMOOTH",
"203 352 LINE SMOOTH",
"203 568 OFFCURVE",
"208 675 OFFCURVE",
"208 718 CURVE",
"208 757 OFFCURVE",
"192 780 OFFCURVE",
"147 780 CURVE",
"115 780 OFFCURVE",
"76 770 OFFCURVE",
"45 762 CURVE",
"53 699 LINE",
"124 703 LINE",
"103 732 LINE",
"103 732 OFFCURVE",
"114 572 OFFCURVE",
"114 356 CURVE SMOOTH",
"114 158 OFFCURVE",
"104 5 OFFCURVE",
"104 5 CURVE",
"109 -5 LINE"
);
},
{
closed = 1;
nodes = (
"480 -8 OFFCURVE",
"513 7 OFFCURVE",
"561 37 CURVE",
"541 89 LINE",
"454 79 LINE",
"494 52 LINE",
"324 340 LINE",
"346 277 LINE",
"468 411 OFFCURVE",
"502 477 OFFCURVE",
"525 499 CURVE",
"521 510 LINE",
"415 510 LINE",
"410 501 LINE",
"388 469 OFFCURVE",
"359 430 OFFCURVE",
"246 301 CURVE",
"247 273 LINE",
"375 73 OFFCURVE",
"376 -8 OFFCURVE",
"452 -8 CURVE SMOOTH"
);
},
{
closed = 1;
nodes = (
"324 233 LINE",
"324 316 LINE",
"134 316 LINE",
"134 233 LINE"
);
}
);
width = 600;
}
);
unicode = 006B;
changeCount = 2;
},
{
color = (99,255,210,255);
glyphname = l;
layers = (
{
background = {
paths = (
{
closed = 1;
nodes = (
"181 374 OFFCURVE",
"220 440 OFFCURVE",
"300 440 CURVE",
"382 440 OFFCURVE",
"406 394 OFFCURVE",
"406 275 CURVE",
"406 196 OFFCURVE",
"402 120 OFFCURVE",
"402 65 CURVE SMOOTH",
"402 13 OFFCURVE",
"426 -10 OFFCURVE",
"458 -10 CURVE",
"481 -10 OFFCURVE",
"512 -5 OFFCURVE",
"539 -1 CURVE",
"543 64 LINE",
"449 83 LINE",
"491 32 LINE",
"491 365 LINE SMOOTH",
"491 471 OFFCURVE",
"432 520 OFFCURVE",
"336 520 CURVE",
"234 520 OFFCURVE",
"181 448 OFFCURVE",
"168 395 CURVE",
"205 439 LINE",
"171 439 LINE",
"181 413 LINE",
"181 718 LINE SMOOTH",
"181 759 OFFCURVE",
"167 780 OFFCURVE",
"126 780 CURVE",
"100 780 OFFCURVE",
"66 772 OFFCURVE",
"37 765 CURVE",
"44 700 LINE",
"105 703 LINE",
"86 732 LINE",
"86 732 OFFCURVE",
"96 600 OFFCURVE",
"96 372 CURVE",
"96 84 OFFCURVE",
"86 10 OFFCURVE",
"86 10 CURVE",
"91 0 LINE",
"186 0 LINE",
"191 10 LINE",
"191 10 OFFCURVE",
"181 82 OFFCURVE",
"181 251 CURVE SMOOTH"
);
}
);
};
layerId = master01;
paths = (
{
closed = 1;
nodes = (
"109 16 OFFCURVE",
"131 -10 OFFCURVE",
"167 -10 CURVE",
"204 -10 OFFCURVE",
"236 -5 OFFCURVE",
"269 0 CURVE",
"273 64 LINE",
"195 79 LINE",
"213 52 LINE",
"210 130 OFFCURVE",
"203 163 OFFCURVE",
"203 384 CURVE SMOOTH",
"203 605 OFFCURVE",
"208 675 OFFCURVE",
"208 718 CURVE",
"208 757 OFFCURVE",
"192 780 OFFCURVE",
"147 780 CURVE",
"115 780 OFFCURVE",
"76 770 OFFCURVE",
"45 762 CURVE",
"53 699 LINE",
"128 703 LINE",
"107 732 LINE",
"107 732 OFFCURVE",
"118 604 OFFCURVE",
"118 384 CURVE SMOOTH",
"118 164 OFFCURVE",
"109 134 OFFCURVE",
"109 61 CURVE SMOOTH"
);
}
);
userData = {
com.schriftgestaltung.Glyphs.lastChange = "2021-08-27 21:30:26 +0000";
};
width = 318;
}
);
unicode = 006C;
},
{
color = (99,255,210,255);
glyphname = m;
layers = (
{
background = {
paths = (
{
closed = 1;
nodes = (
"189 374 OFFCURVE",
"220 440 OFFCURVE",
"308 440 CURVE",
"390 440 OFFCURVE",
"414 394 OFFCURVE",
"414 275 CURVE",
"414 196 OFFCURVE",
"410 120 OFFCURVE",
"410 65 CURVE SMOOTH",
"410 13 OFFCURVE",
"434 -10 OFFCURVE",
"466 -10 CURVE",
"489 -10 OFFCURVE",
"520 -5 OFFCURVE",
"547 -1 CURVE",
"551 64 LINE",
"457 83 LINE",
"499 32 LINE",
"499 365 LINE SMOOTH",
"499 471 OFFCURVE",
"440 520 OFFCURVE",
"344 520 CURVE",
"242 520 OFFCURVE",
"189 448 OFFCURVE",
"176 395 CURVE",
"213 439 LINE",
"179 439 LINE",
"189 413 LINE",
"189 458 LINE SMOOTH",
"189 499 OFFCURVE",
"175 520 OFFCURVE",
"134 520 CURVE",
"108 520 OFFCURVE",
"74 512 OFFCURVE",
"45 505 CURVE",
"52 440 LINE",
"113 443 LINE",
"94 472 LINE",
"94 472 OFFCURVE",
"104 415 OFFCURVE",
"104 275 CURVE SMOOTH",
"104 84 OFFCURVE",
"94 10 OFFCURVE",
"94 10 CURVE",
"99 0 LINE",
"194 0 LINE",
"199 10 LINE",
"199 10 OFFCURVE",
"189 82 OFFCURVE",
"189 251 CURVE SMOOTH"
);
}
);
};
guideLines = (
{
position = "{414, 251}";
}
);
layerId = master01;
paths = (
{
closed = 1;
nodes = (
"479 455 OFFCURVE",
"436 520 OFFCURVE",
"332 520 CURVE",
"256 520 OFFCURVE",
"196 468 OFFCURVE",
"173 395 CURVE",
"209 440 LINE",
"173 440 LINE",
"189 413 LINE",
"189 458 LINE SMOOTH",
"189 497 OFFCURVE",
"177 520 OFFCURVE",
"143 520 CURVE",
"114 520 OFFCURVE",
"78 513 OFFCURVE",
"45 505 CURVE",
"52 440 LINE",
"113 443 LINE",
"94 472 LINE",
"94 472 OFFCURVE",
"104 415 OFFCURVE",
"104 275 CURVE SMOOTH",
"104 77 OFFCURVE",
"94 10 OFFCURVE",
"94 10 CURVE",
"99 0 LINE",
"194 0 LINE",
"199 10 LINE",
"199 10 OFFCURVE",
"189 89 OFFCURVE",
"189 275 CURVE SMOOTH",
"189 394 OFFCURVE",
"223 440 OFFCURVE",
"297 440 CURVE",
"370 440 OFFCURVE",
"394 395 OFFCURVE",
"394 275 CURVE",
"394 146 OFFCURVE",
"389 37 OFFCURVE",
"384 6 CURVE",
"388 0 LINE",
"484 0 LINE",
"489 6 LINE",
"482 88 OFFCURVE",
"479 129 OFFCURVE",
"479 275 CURVE SMOOTH",
"479 391 OFFCURVE",
"509 440 OFFCURVE",
"592 440 CURVE SMOOTH",
"664 440 OFFCURVE",
"684 398 OFFCURVE",
"684 275 CURVE",
"684 196 OFFCURVE",
"680 120 OFFCURVE",
"680 65 CURVE SMOOTH",
"680 13 OFFCURVE",
"709 -10 OFFCURVE",
"747 -10 CURVE",
"767 -10 OFFCURVE",
"799 -4 OFFCURVE",
"818 0 CURVE",
"822 64 LINE",
"728 83 LINE",
"769 33 LINE",
"769 365 LINE SMOOTH",
"769 460 OFFCURVE",
"722 520 OFFCURVE",
"623 520 CURVE",
"534 520 OFFCURVE",
"475 462 OFFCURVE",
"463 395 CURVE",
"500 439 LINE",
"463 439 LINE",
"479 390 LINE"
);
}
);
userData = {
com.schriftgestaltung.Glyphs.lastChange = "2021-09-01 04:58:42 +0000";
com.typemytype.robofont.guideline.showMeasurements.RPSkcjBNnE = 1;
};
width = 867;
}
);
unicode = 006D;
},
{
color = (99,255,210,255);
glyphname = n;
layers = (
{
anchors = (
{
name = top;
position = "{-228, 510}";
}
);
background = {
paths = (
{
closed = 1;
nodes = (
"114 155 OFFCURVE",
"115 210 OFFCURVE",
"115 275 CURVE SMOOTH",
"115 363 OFFCURVE",
"113 429 OFFCURVE",
"107 471 CURVE",
"130 434 LINE",
"63 431 LINE",
"56 504 LINE",
"64 507 OFFCURVE",
"72 509 OFFCURVE",
"80 509 CURVE",
"92 513 OFFCURVE",
"103 515 OFFCURVE",
"115 517 CURVE SMOOTH",
"126 518 OFFCURVE",
"137 519 OFFCURVE",
"146 519 CURVE SMOOTH",
"164 519 OFFCURVE",
"177 514 OFFCURVE",
"185 504 CURVE SMOOTH",
"193 494 OFFCURVE",
"197 479 OFFCURVE",
"197 457 CURVE SMOOTH",
"197 412 LINE",
"181 439 LINE",
"222 439 LINE",
"184 392 LINE",
"193 428 OFFCURVE",
"213 458 OFFCURVE",
"243 482 CURVE SMOOTH",
"272 507 OFFCURVE",
"311 519 OFFCURVE",
"359 519 CURVE SMOOTH",
"408 519 OFFCURVE",
"445 506 OFFCURVE",
"470 478 CURVE SMOOTH",
"495 451 OFFCURVE",
"508 410 OFFCURVE",
"508 355 CURVE SMOOTH",
"508 31 LINE",
"465 85 LINE",
"560 65 LINE",
"556 -1 LINE",
"534 -4 LINE SMOOTH",
"507 -8 OFFCURVE",
"489 -10 OFFCURVE",
"480 -10 CURVE SMOOTH",
"460 -10 OFFCURVE",
"445 -4 OFFCURVE",
"435 9 CURVE SMOOTH",
"424 21 OFFCURVE",
"419 40 OFFCURVE",
"419 65 CURVE SMOOTH",
"421 159 LINE SMOOTH",
"422 213 OFFCURVE",
"422 260 OFFCURVE",
"423 300 CURVE SMOOTH",
"423 336 OFFCURVE",
"419 364 OFFCURVE",
"411 385 CURVE SMOOTH",
"404 407 OFFCURVE",
"392 422 OFFCURVE",
"377 432 CURVE SMOOTH",
"362 441 OFFCURVE",
"343 446 OFFCURVE",
"318 446 CURVE SMOOTH",
"278 446 OFFCURVE",
"248 432 OFFCURVE",
"228 402 CURVE SMOOTH",
"207 373 OFFCURVE",
"197 331 OFFCURVE",
"197 276 CURVE SMOOTH",
"197 214 OFFCURVE",
"198 161 OFFCURVE",
"200 115 CURVE SMOOTH",
"202 70 OFFCURVE",
"204 34 OFFCURVE",
"207 10 CURVE",
"202 0 LINE",
"110 0 LINE",
"105 10 LINE",
"108 30 OFFCURVE",
"110 64 OFFCURVE",
"112 109 CURVE SMOOTH"
);
}
);
};
layerId = master01;
paths = (
{
closed = 1;
nodes = (
"189 374 OFFCURVE",
"220 440 OFFCURVE",
"308 440 CURVE",
"390 440 OFFCURVE",
"414 394 OFFCURVE",
"414 275 CURVE",
"414 196 OFFCURVE",
"410 120 OFFCURVE",
"410 65 CURVE SMOOTH",
"410 13 OFFCURVE",
"434 -10 OFFCURVE",
"466 -10 CURVE",
"489 -10 OFFCURVE",
"520 -5 OFFCURVE",
"547 -1 CURVE",
"551 64 LINE",
"457 83 LINE",
"499 32 LINE",
"499 365 LINE SMOOTH",
"499 471 OFFCURVE",
"440 520 OFFCURVE",
"344 520 CURVE",
"242 520 OFFCURVE",
"189 448 OFFCURVE",
"176 395 CURVE",
"213 439 LINE",
"179 439 LINE",
"189 413 LINE",
"189 458 LINE SMOOTH",
"189 499 OFFCURVE",
"175 520 OFFCURVE",
"134 520 CURVE",
"108 520 OFFCURVE",
"74 512 OFFCURVE",
"45 505 CURVE",
"52 440 LINE",
"113 443 LINE",
"94 472 LINE",
"94 472 OFFCURVE",
"104 415 OFFCURVE",
"104 275 CURVE SMOOTH",
"104 84 OFFCURVE",
"94 10 OFFCURVE",
"94 10 CURVE",
"99 0 LINE",
"194 0 LINE",
"199 10 LINE",
"199 10 OFFCURVE",
"189 82 OFFCURVE",
"189 251 CURVE SMOOTH"
);
}
);
userData = {
com.schriftgestaltung.Glyphs.lastChange = "2021-09-01 03:24:47 +0000";
};
width = 596;
}
);
unicode = 006E;
},
{
color = (99,255,210,255);
glyphname = o;
layers = (
{
anchors = (
{
name = top;
position = "{261, 520}";
}
);
background = {
paths = (
{
closed = 1;
nodes = (
"198 -10 OFFCURVE",
"162 1 OFFCURVE",
"130 22 CURVE SMOOTH",
"99 43 OFFCURVE",
"75 74 OFFCURVE",
"58 113 CURVE SMOOTH",
"42 153 OFFCURVE",
"34 200 OFFCURVE",
"34 255 CURVE SMOOTH",
"34 309 OFFCURVE",
"42 356 OFFCURVE",
"58 396 CURVE SMOOTH",
"75 435 OFFCURVE",
"99 466 OFFCURVE",
"130 487 CURVE SMOOTH",
"162 509 OFFCURVE",
"198 519 OFFCURVE",
"240 519 CURVE SMOOTH",
"283 519 OFFCURVE",
"319 509 OFFCURVE",
"350 487 CURVE SMOOTH",
"381 466 OFFCURVE",
"404 435 OFFCURVE",
"421 396 CURVE SMOOTH",
"438 356 OFFCURVE",
"446 309 OFFCURVE",
"446 255 CURVE SMOOTH",
"446 200 OFFCURVE",
"438 153 OFFCURVE",
"421 113 CURVE SMOOTH",
"404 74 OFFCURVE",
"381 43 OFFCURVE",
"350 22 CURVE SMOOTH",
"319 1 OFFCURVE",
"283 -10 OFFCURVE",
"240 -10 CURVE SMOOTH"
);
},
{
closed = 1;
nodes = (
"281 63 OFFCURVE",
"311 78 OFFCURVE",
"330 109 CURVE SMOOTH",
"349 140 OFFCURVE",
"358 189 OFFCURVE",
"358 255 CURVE SMOOTH",
"358 320 OFFCURVE",
"349 369 OFFCURVE",
"330 400 CURVE SMOOTH",
"311 431 OFFCURVE",
"281 446 OFFCURVE",
"240 446 CURVE SMOOTH",
"200 446 OFFCURVE",
"170 431 OFFCURVE",
"151 400 CURVE SMOOTH",
"132 369 OFFCURVE",
"122 320 OFFCURVE",
"122 255 CURVE SMOOTH",
"122 189 OFFCURVE",
"132 141 OFFCURVE",
"151 110 CURVE SMOOTH",
"170 78 OFFCURVE",
"200 63 OFFCURVE",
"240 63 CURVE SMOOTH"
);
}
);
};
guideLines = (
{
position = "{-23, 461}";
}
);
layerId = master01;
paths = (
{
closed = 1;
nodes = (
"341 65 OFFCURVE",
"378 126 OFFCURVE",
"378 255 CURVE SMOOTH",
"378 384 OFFCURVE",
"341 445 OFFCURVE",
"261 445 CURVE SMOOTH",
"182 445 OFFCURVE",
"145 384 OFFCURVE",
"145 255 CURVE SMOOTH",
"145 126 OFFCURVE",
"182 65 OFFCURVE",
"261 65 CURVE SMOOTH"
);
},
{
closed = 1;
nodes = (
"125 -10 OFFCURVE",
"55 80 OFFCURVE",
"55 255 CURVE SMOOTH",
"55 430 OFFCURVE",
"125 520 OFFCURVE",
"261 520 CURVE SMOOTH",
"398 520 OFFCURVE",
"468 430 OFFCURVE",
"468 255 CURVE SMOOTH",
"468 80 OFFCURVE",
"398 -10 OFFCURVE",
"261 -10 CURVE SMOOTH"
);
}
);
userData = {
com.schriftgestaltung.Glyphs.lastChange = "2021-09-01 03:19:02 +0000";
};
width = 523;
}
);
unicode = 006F;
},
{
color = (99,255,210,255);
glyphname = p;
layers = (
{
background = {
paths = (
{
closed = 1;
nodes = (
"174 -126 OFFCURVE",
"172 -20 OFFCURVE",
"172 235 CURVE",
"172 382 OFFCURVE",
"214 441 OFFCURVE",
"295 441 CURVE SMOOTH",
"358 441 OFFCURVE",
"392 391 OFFCURVE",
"392 266 CURVE SMOOTH",
"392 241 LINE SMOOTH",
"392 118 OFFCURVE",
"354 71 OFFCURVE",
"289 71 CURVE SMOOTH",
"241 71 OFFCURVE",
"194 92 OFFCURVE",
"150 119 CURVE",
"150 69 LINE",
"196 69 LINE",
"172 82 LINE",
"185 33 OFFCURVE",
"232 -9 OFFCURVE",
"305 -9 CURVE SMOOTH",
"402 -9 OFFCURVE",
"487 52 OFFCURVE",
"487 246 CURVE SMOOTH",
"487 271 LINE SMOOTH",
"487 442 OFFCURVE",
"422 520 OFFCURVE",
"317 520 CURVE SMOOTH",
"223 520 OFFCURVE",
"169 452 OFFCURVE",
"161 390 CURVE",
"198 439 LINE",
"140 439 LINE",
"173 418 LINE",
"173 454 LINE SMOOTH",
"173 499 OFFCURVE",
"162 520 OFFCURVE",
"127 520 CURVE SMOOTH",
"106 520 OFFCURVE",
"62 516 OFFCURVE",
"39 511 CURVE",
"35 446 LINE",
"128 427 LINE",
"87 474 LINE",
"87 189 LINE SMOOTH",
"87 -63 OFFCURVE",
"82 -156 OFFCURVE",
"82 -207 CURVE",
"82 -249 OFFCURVE",
"97 -269 OFFCURVE",
"138 -269 CURVE SMOOTH",
"174 -269 OFFCURVE",
"217 -258 OFFCURVE",
"255 -250 CURVE",
"248 -185 LINE",
"158 -189 LINE",
"182 -212 LINE"
);
}
);
};
layerId = master01;
paths = (
{
closed = 1;
nodes = (
"193 448 LINE SMOOTH",
"193 499 OFFCURVE",
"184 520 OFFCURVE",
"141 520 CURVE",
"110.958 520 OFFCURVE",
"71 512 OFFCURVE",
"38 504 CURVE",
"45 439 LINE",
"113 442 LINE",
"94 472 LINE",
"94 472 OFFCURVE",
"104 376 OFFCURVE",
"107 164 CURVE SMOOTH",
"110 -48 OFFCURVE",
"101 -142 OFFCURVE",
"97 -210 CURVE",
"102 -220 LINE",
"204 -220 LINE",
"209 -210 LINE",
"200 -99 OFFCURVE",
"192 -60 OFFCURVE",
"192 244 CURVE SMOOTH",
"192 390 OFFCURVE",
"237 440 OFFCURVE",
"312 440 CURVE SMOOTH",
"379 440 OFFCURVE",
"412 393 OFFCURVE",
"412 277 CURVE SMOOTH",
"412 252 LINE SMOOTH",
"412 132 OFFCURVE",
"373 70 OFFCURVE",
"314 70 CURVE",
"263 70 OFFCURVE",
"225 86 OFFCURVE",
"174 115 CURVE",
"174 69 LINE",
"214 69 LINE",
"184 105 LINE",
"203 24 OFFCURVE",
"252 -10 OFFCURVE",
"328 -10 CURVE SMOOTH",
"439 -10 OFFCURVE",
"507 86 OFFCURVE",
"507 256 CURVE SMOOTH",
"507 281 LINE SMOOTH",
"507 443 OFFCURVE",
"448 520 OFFCURVE",
"345 520 CURVE SMOOTH",
"253 520 OFFCURVE",
"199 472 OFFCURVE",
"181 393 CURVE",
"211 439 LINE",
"164 439 LINE",
"193 347 LINE"
);
}
);
userData = {
com.schriftgestaltung.Glyphs.lastChange = "2021-09-01 02:48:25 +0000";
};
width = 562;
}
);
unicode = 0070;
},
{
color = (99,255,210,255);
glyphname = q;
layers = (
{
background = {
paths = (
{
closed = 1;
nodes = (
"443 -222 OFFCURVE",
"433 -150 OFFCURVE",
"433 121 CURVE SMOOTH",
"433 392 OFFCURVE",
"443 500 OFFCURVE",
"443 500 CURVE",
"438 510 LINE",
"393 510 LINE",
"358 438 LINE",
"348 438 LINE",
"348 -189 LINE SMOOTH",
"348 -252 OFFCURVE",
"362 -270 OFFCURVE",
"401 -270 CURVE SMOOTH",
"436 -270 OFFCURVE",
"470 -261 OFFCURVE",
"494 -255 CURVE",
"487 -190 LINE",
"424 -193 LINE",
"443 -222 LINE"
);
},
{
closed = 1;
nodes = (
"127 397 OFFCURVE",
"167 435 OFFCURVE",
"228 435 CURVE",
"285 435 OFFCURVE",
"330 410 OFFCURVE",
"369 388 CURVE",
"381 436 LINE",
"353 436 LINE",
"317 491 OFFCURVE",
"279 520 OFFCURVE",
"205 520 CURVE",
"94 520 OFFCURVE",
"32 416 OFFCURVE",
"32 252 CURVE SMOOTH",
"32 227 LINE SMOOTH",
"32 60 OFFCURVE",
"85 -10 OFFCURVE",
"197 -10 CURVE",
"270 -10 OFFCURVE",
"314 25 OFFCURVE",
"343 71 CURVE",
"371 71 LINE",
"348 255 LINE",
"348 114 OFFCURVE",
"295 70 OFFCURVE",
"230 70 CURVE SMOOTH",
"166 70 OFFCURVE",
"127 100 OFFCURVE",
"127 229 CURVE SMOOTH",
"127 252 LINE SMOOTH"
);
}
);
};
layerId = master01;
paths = (
{
closed = 1;
nodes = (
"371 -15 LINE SMOOTH",
"371 -65 OFFCURVE",
"365 -134 OFFCURVE",
"365 -156 CURVE SMOOTH",
"365 -208 OFFCURVE",
"384 -230 OFFCURVE",
"425 -230 CURVE SMOOTH",
"454 -230 OFFCURVE",
"486 -223 OFFCURVE",
"511 -217 CURVE",
"513 -152 LINE",
"419 -143 LINE",
"463 -176 LINE",
"460 -119 OFFCURVE",
"456 -68 OFFCURVE",
"456 165 CURVE SMOOTH",
"456 398 OFFCURVE",
"461 457 OFFCURVE",
"466 500 CURVE",
"461 510 LINE",
"376 510 LINE",
"371 500 LINE",
"371 253 LINE SMOOTH",
"371 140 OFFCURVE",
"331 70 OFFCURVE",
"256 70 CURVE SMOOTH",
"178 70 OFFCURVE",
"150 120 OFFCURVE",
"150 247 CURVE SMOOTH",
"150 272 LINE SMOOTH",
"150 388 OFFCURVE",
"181 435 OFFCURVE",
"255 435 CURVE SMOOTH",
"301 435 OFFCURVE",
"349 413 OFFCURVE",
"393 388 CURVE",
"393 442 LINE",
"357 442 LINE",
"371 432 LINE",
"357 475 OFFCURVE",
"308 520 OFFCURVE",
"238 520 CURVE SMOOTH",
"128 520 OFFCURVE",
"55 446 OFFCURVE",
"55 269 CURVE SMOOTH",
"55 244 LINE SMOOTH",
"55 66 OFFCURVE",
"101 -10 OFFCURVE",
"224 -10 CURVE",
"316 -10 OFFCURVE",
"367 58 OFFCURVE",
"381 122 CURVE",
"352 82 LINE",
"403 82 LINE",
"371 131 LINE"
);
}
);
userData = {
com.schriftgestaltung.Glyphs.lastChange = "2021-09-01 02:18:04 +0000";
};
width = 548;
}
);
leftMetricsKey = "=o";
unicode = 0071;
},
{
color = (99,255,210,255);
glyphname = r;
layers = (
{
background = {
paths = (
{
closed = 1;
nodes = (
"184 374 OFFCURVE",
"215 440 OFFCURVE",
"303 440 CURVE",
"385 440 OFFCURVE",
"409 394 OFFCURVE",
"409 275 CURVE",
"409 196 OFFCURVE",
"405 120 OFFCURVE",
"405 65 CURVE SMOOTH",
"405 13 OFFCURVE",
"429 -10 OFFCURVE",
"461 -10 CURVE",
"484 -10 OFFCURVE",
"515 -5 OFFCURVE",
"542 -1 CURVE",
"546 64 LINE",
"452 83 LINE",
"494 32 LINE",
"494 365 LINE SMOOTH",
"494 471 OFFCURVE",
"435 520 OFFCURVE",
"339 520 CURVE",
"237 520 OFFCURVE",
"184 448 OFFCURVE",
"171 395 CURVE",
"208 439 LINE",
"174 439 LINE",
"184 413 LINE",
"184 458 LINE SMOOTH",
"184 499 OFFCURVE",
"170 520 OFFCURVE",
"129 520 CURVE",
"103 520 OFFCURVE",
"69 512 OFFCURVE",
"40 505 CURVE",
"47 440 LINE",
"108 443 LINE",
"89 472 LINE",
"89 472 OFFCURVE",
"99 415 OFFCURVE",
"99 275 CURVE SMOOTH",
"99 84 OFFCURVE",
"89 10 OFFCURVE",
"89 10 CURVE",
"94 0 LINE",
"189 0 LINE",
"194 10 LINE",
"194 10 OFFCURVE",
"184 82 OFFCURVE",
"184 251 CURVE SMOOTH"
);
}
);
};
layerId = master01;
paths = (
{
closed = 1;
nodes = (
"189 260 LINE",
"189 360 OFFCURVE",
"246 438 OFFCURVE",
"384 407 CURVE",
"404 507 LINE",
"392 512 OFFCURVE",
"364 520 OFFCURVE",
"332 520 CURVE",
"259 520 OFFCURVE",
"221 491 OFFCURVE",
"194 409 CURVE",
"184 409 LINE",
"184 262 LINE"
);
},
{
closed = 1;
nodes = (
"94 472 OFFCURVE",
"104 415 OFFCURVE",
"104 275 CURVE SMOOTH",
"104 77 OFFCURVE",
"94 10 OFFCURVE",
"94 10 CURVE",
"99 0 LINE",
"194 0 LINE",
"199 10 LINE",
"199 10 OFFCURVE",
"189 87 OFFCURVE",
"189 268 CURVE",
"189 348 OFFCURVE",
"189 458 OFFCURVE",
"189 458 CURVE",
"189 497 OFFCURVE",
"176 520 OFFCURVE",
"138 520 CURVE",
"110 520 OFFCURVE",
"77 513 OFFCURVE",
"45 505 CURVE",
"52 440 LINE",
"113 443 LINE",
"94 472 LINE"
);
}
);
userData = {
com.schriftgestaltung.Glyphs.lastChange = "2021-08-31 17:16:38 +0000";
};
width = 414;
}
);
unicode = 0072;
},
{
color = (38,221,205,255);
glyphname = s;
layers = (
{
layerId = master01;
paths = (
{
closed = 1;
nodes = (
"144 421 OFFCURVE",
"188 445 OFFCURVE",
"236 445 CURVE",
"316 445 OFFCURVE",
"339 410 OFFCURVE",
"353 334 CURVE",
"355 332 LINE",
"427 337 LINE",
"429 339 LINE",
"429 446 OFFCURVE",
"380 520 OFFCURVE",
"241 520 CURVE",
"128 520 OFFCURVE",
"60 456 OFFCURVE",
"60 369 CURVE",
"60 268 OFFCURVE",
"152 237 OFFCURVE",
"228 214 CURVE SMOOTH",
"291 195 OFFCURVE",
"353 182 OFFCURVE",
"353 128 CURVE",
"353 85 OFFCURVE",
"303 65 OFFCURVE",
"236 65 CURVE",
"163 65 OFFCURVE",
"118 80 OFFCURVE",
"72 99 CURVE",
"69 98 LINE",
"45 47 LINE",
"46 44 LINE",
"96 16 OFFCURVE",
"152 -10 OFFCURVE",
"246 -10 CURVE",
"367 -10 OFFCURVE",
"438 38 OFFCURVE",
"438 130 CURVE",
"438 244 OFFCURVE",
"344 267 OFFCURVE",
"267 292 CURVE SMOOTH",
"203 313 OFFCURVE",
"145 322 OFFCURVE",
"145 381 CURVE"
);
}
);
width = 483;
}
);
unicode = 0073;
},
{
glyphname = t;
layers = (
{
layerId = master01;
paths = (
{
closed = 1;
nodes = (
"60 438 OFFCURVE",
"96 440 OFFCURVE",
"139 440 CURVE",
"169 440 OFFCURVE",
"209 438 OFFCURVE",
"265 437 CURVE",
"270 445 LINE",
"270 504 LINE",
"265 510 LINE",
"16 510 LINE",
"10 502 LINE",
"10 445 LINE",
"16 437 LINE"
);
},
{
closed = 1;
nodes = (
"182 780 LINE",
"95 780 LINE",
"87 770 LINE",
"91 713 OFFCURVE",
"98 558 OFFCURVE",
"98 384 CURVE SMOOTH",
"98 164 OFFCURVE",
"89 134 OFFCURVE",
"89 61 CURVE SMOOTH",
"89 16 OFFCURVE",
"111 -10 OFFCURVE",
"147 -10 CURVE",
"184 -10 OFFCURVE",
"216 -5 OFFCURVE",
"249 0 CURVE",
"253 64 LINE",
"175 79 LINE",
"193 52 LINE",
"190 130 OFFCURVE",
"183 163 OFFCURVE",
"183 384 CURVE SMOOTH",
"183 558 OFFCURVE",
"190 713 OFFCURVE",
"192 770 CURVE"
);
}
);
userData = {
com.schriftgestaltung.Glyphs.lastChange = "2021-09-10 23:56:46 +0000";
};
width = 290;
}
);
unicode = 0074;
},
{
color = (38,221,205,255);
glyphname = u;
layers = (
{
layerId = master01;
paths = (
{
closed = 1;
nodes = (
"392 136 OFFCURVE",
"364 70 OFFCURVE",
"283 70 CURVE",
"205 70 OFFCURVE",
"182 116 OFFCURVE",
"182 235 CURVE",
"182 314 OFFCURVE",
"186 390 OFFCURVE",
"186 445 CURVE SMOOTH",
"186 497 OFFCURVE",
"162 520 OFFCURVE",
"130 520 CURVE",
"107 520 OFFCURVE",
"76 515 OFFCURVE",
"49 511 CURVE",
"45 446 LINE",
"139 427 LINE",
"97 478 LINE",
"97 145 LINE SMOOTH",
"97 39 OFFCURVE",
"154 -10 OFFCURVE",
"247 -10 CURVE",
"351 -10 OFFCURVE",
"385 55 OFFCURVE",
"405 130 CURVE",
"368 86 LINE",
"406 86 LINE",
"393 101 LINE",
"393 57 LINE SMOOTH",
"393 13 OFFCURVE",
"408 -10 OFFCURVE",
"453 -10 CURVE",
"474 -10 OFFCURVE",
"502 -5 OFFCURVE",
"526 1 CURVE",
"530 65 LINE",
"448 76 LINE",
"485 39 LINE",
"485 39 OFFCURVE",
"477 96 OFFCURVE",
"477 235 CURVE SMOOTH",
"477 426 OFFCURVE",
"487 500 OFFCURVE",
"487 500 CURVE",
"482 510 LINE",
"387 510 LINE",
"382 500 LINE",
"382 500 OFFCURVE",
"392 428 OFFCURVE",
"392 259 CURVE SMOOTH"
);
}
);
width = 575;
}
);
unicode = 0075;
},
{
color = (99,255,210,255);
glyphname = v;
layers = (
{
background = {
paths = (
{
closed = 1;
nodes = (
"189 374 OFFCURVE",
"220 440 OFFCURVE",
"308 440 CURVE",
"390 440 OFFCURVE",
"414 394 OFFCURVE",
"414 275 CURVE",
"414 196 OFFCURVE",
"410 120 OFFCURVE",
"410 65 CURVE SMOOTH",
"410 13 OFFCURVE",
"434 -10 OFFCURVE",
"466 -10 CURVE",
"489 -10 OFFCURVE",
"520 -5 OFFCURVE",
"547 -1 CURVE",
"551 64 LINE",
"457 83 LINE",
"499 32 LINE",
"499 365 LINE SMOOTH",
"499 471 OFFCURVE",
"440 520 OFFCURVE",
"344 520 CURVE",
"242 520 OFFCURVE",
"189 448 OFFCURVE",
"176 395 CURVE",
"213 439 LINE",
"179 439 LINE",
"189 413 LINE",
"189 458 LINE SMOOTH",
"189 499 OFFCURVE",
"175 520 OFFCURVE",
"134 520 CURVE",
"108 520 OFFCURVE",
"74 512 OFFCURVE",
"45 505 CURVE",
"52 440 LINE",
"113 443 LINE",
"94 472 LINE",
"94 472 OFFCURVE",
"104 415 OFFCURVE",
"104 275 CURVE SMOOTH",
"104 84 OFFCURVE",
"94 10 OFFCURVE",
"94 10 CURVE",
"99 0 LINE",
"194 0 LINE",
"199 10 LINE",
"199 10 OFFCURVE",
"189 82 OFFCURVE",
"189 251 CURVE SMOOTH"
);
}
);
};
guideLines = (
{
position = "{49, 459}";
}
);
layerId = master01;
paths = (
{
closed = 1;
nodes = (
"309 10 LINE",
"303 0 LINE",
"202 0 LINE",
"196 10 LINE",
"10 500 LINE",
"15 510 LINE",
"15 510 OFFCURVE",
"104 510 OFFCURVE",
"104 510 CURVE",
"110 500 LINE",
"119 469 OFFCURVE",
"273 63 OFFCURVE",
"285 34 CURVE",
"239 34 LINE",
"248 62 OFFCURVE",
"377 481 OFFCURVE",
"383 502 CURVE",
"390 510 LINE",
"390 510 OFFCURVE",
"462 510 OFFCURVE",
"462 510 CURVE",
"468 500 LINE"
);
}
);
userData = {
com.schriftgestaltung.Glyphs.lastChange = "2021-08-26 00:01:20 +0000";
};
width = 478;
}
);
unicode = 0076;
},
{
color = (99,255,210,255);
glyphname = w;
layers = (
{
background = {
paths = (
{
closed = 1;
nodes = (
"259 10 LINE",
"253 0 LINE",
"162 0 LINE",
"156 10 LINE",
"0 500 LINE",
"5 510 LINE",
"5 510 OFFCURVE",
"94 510 OFFCURVE",
"94 510 CURVE",
"100 500 LINE",
"108.922 469.27 OFFCURVE",
"223.125 61.709 OFFCURVE",
"235 34 CURVE",
"189 34 LINE",
"198.065 62.202 OFFCURVE",
"326.996 480.985 OFFCURVE",
"333 502 CURVE",
"340 510 LINE",
"340 510 OFFCURVE",
"412 510 OFFCURVE",
"412 510 CURVE",
"418 500 LINE"
);
},
{
closed = 1;
nodes = (
"600 10 LINE",
"594 0 LINE",
"503 0 LINE",
"497 10 LINE",
"331 500 LINE",
"336 510 LINE",
"336 510 OFFCURVE",
"415 510 OFFCURVE",
"415 510 CURVE",
"421 500 LINE",
"430.05 468.829 OFFCURVE",
"563.868 62.308 OFFCURVE",
"576 34 CURVE",
"530 34 LINE",
"538.939 61.811 OFFCURVE",
"648.033 481.114 OFFCURVE",
"654 502 CURVE",
"661 510 LINE",
"661 510 OFFCURVE",
"733 510 OFFCURVE",
"733 510 CURVE",
"739 500 LINE"
);
}
);
};
layerId = master01;
paths = (
{
closed = 1;
nodes = (
"499 10 LINE",
"505 0 LINE",
"594 0 LINE",
"601 10 LINE",
"739 501 LINE",
"734 510 LINE",
"734 510 OFFCURVE",
"660 510 OFFCURVE",
"660 510 CURVE",
"654 501 LINE",
"654 501 OFFCURVE",
"629 394 OFFCURVE",
"607 306 CURVE",
"583.02 210.079 OFFCURVE",
"537 50 OFFCURVE",
"537 50 CURVE",
"571 50 LINE",
"571 50 OFFCURVE",
"525.134 176.574 OFFCURVE",
"490 288 CURVE SMOOTH",
"456.171 397.447 OFFCURVE",
"425 501 OFFCURVE",
"425 501 CURVE",
"417 510 LINE",
"417 510 OFFCURVE",
"348 510 OFFCURVE",
"348 510 CURVE",
"341 503 LINE",
"341 503 OFFCURVE",
"314.952 394.845 OFFCURVE",
"282 289 CURVE SMOOTH",
"249.984 185.948 OFFCURVE",
"208 50 OFFCURVE",
"208 50 CURVE",
"242 50 LINE",
"242 50 OFFCURVE",
"184.219 217.226 OFFCURVE",
"158 310 CURVE SMOOTH",
"135 392 OFFCURVE",
"110 501 OFFCURVE",
"110 501 CURVE",
"104 510 LINE",
"104 510 OFFCURVE",
"15 510 OFFCURVE",
"15 510 CURVE",
"10 501 LINE",
"167 10 LINE",
"174 0 LINE",
"257 0 LINE",
"263 10 LINE",
"405 469 LINE",
"350 469 LINE"
);
}
);
userData = {
com.schriftgestaltung.Glyphs.lastChange = "2021-09-01 03:05:42 +0000";
};
width = 752;
}
);
unicode = 0077;
},
{
glyphname = x;
layers = (
{
layerId = master01;
paths = (
{
closed = 1;
nodes = (
"460 0 LINE",
"465 11 LINE",
"337 169 OFFCURVE",
"199 383 OFFCURVE",
"145 500 CURVE",
"135 510 LINE",
"28 510 LINE",
"23 500 LINE",
"125 372 OFFCURVE",
"266 145 OFFCURVE",
"343 10 CURVE",
"353 0 LINE"
);
},
{
closed = 1;
nodes = (
"263 221 LINE",
"316 315 OFFCURVE",
"375 404 OFFCURVE",
"445 500 CURVE",
"440 510 LINE",
"343 510 LINE",
"335 500 LINE",
"287 391 OFFCURVE",
"240 321 OFFCURVE",
"181 240 CURVE"
);
},
{
closed = 1;
nodes = (
"208 294 LINE",
"125 156 OFFCURVE",
"92 108 OFFCURVE",
"15 11 CURVE",
"20 0 LINE",
"115 0 LINE",
"125 10 LINE",
"175 105 OFFCURVE",
"200 143 OFFCURVE",
"267 244 CURVE"
);
}
);
width = 480;
}
);
unicode = 0078;
},
{
glyphname = z;
layers = (
{
layerId = master01;
paths = (
{
closed = 1;
nodes = (
"259 369 OFFCURVE",
"134 169 OFFCURVE",
"23 11 CURVE",
"28 0 LINE",
"73 3 OFFCURVE",
"145 5 OFFCURVE",
"230 4 CURVE",
"312 3 OFFCURVE",
"399 5 OFFCURVE",
"425 0 CURVE",
"430 10 LINE",
"430 81 LINE",
"425 90 LINE",
"425 90 OFFCURVE",
"341 82 OFFCURVE",
"124 82 CURVE",
"169 59 LINE",
"229 194 OFFCURVE",
"343 372 OFFCURVE",
"425 500 CURVE",
"420 510 LINE",
"375 507 OFFCURVE",
"308 505 OFFCURVE",
"223 506 CURVE",
"141 507 OFFCURVE",
"84 505 OFFCURVE",
"58 510 CURVE",
"53 500 LINE",
"53 429 LINE",
"58 420 LINE",
"58 420 OFFCURVE",
"112 428 OFFCURVE",
"329 428 CURVE",
"293 486 LINE"
);
}
);
width = 450;
}
);
unicode = 007A;
},
{
glyphname = semicolon;
lastChange = "2021-09-12 21:01:50 +0000";
layers = (
{
layerId = master01;
paths = (
{
closed = 1;
nodes = (
"20 499 OFFCURVE",
"51 526 OFFCURVE",
"93 526 CURVE SMOOTH",
"136 526 OFFCURVE",
"165 498 OFFCURVE",
"165 457 CURVE SMOOTH",
"165 410 OFFCURVE",
"134 381 OFFCURVE",
"93 381 CURVE SMOOTH",
"47 381 OFFCURVE",
"20 414 OFFCURVE",
"20 457 CURVE"
);
},
{
closed = 1;
nodes = (
"25 -178 LINE",
"5 -168 LINE",
"74 138 LINE",
"90 148 LINE",
"130 146 OFFCURVE",
"169 130 OFFCURVE",
"171 90 CURVE",
"173 19 OFFCURVE",
"104 -57 OFFCURVE",
"35 -173 CURVE"
);
}
);
width = 187;
}
);
unicode = 003B;
changeCount = 24;
},
{
glyphname = question;
layers = (
{
layerId = master01;
paths = (
{
closed = 1;
nodes = (
"233 202 LINE",
"227 212 LINE",
"229 364 LINE",
"233 372 OFFCURVE",
"239 382 OFFCURVE",
"243 391 CURVE",
"384 391 OFFCURVE",
"436 462 OFFCURVE",
"436 542 CURVE SMOOTH",
"436 630 OFFCURVE",
"392 687 OFFCURVE",
"323 687 CURVE SMOOTH",
"247 687 OFFCURVE",
"207 677 OFFCURVE",
"133 651 CURVE",
"128 654 LINE",
"104 724 LINE",
"106 731 LINE",
"182 758 OFFCURVE",
"249 783 OFFCURVE",
"321 776 CURVE",
"433 776 OFFCURVE",
"527 676 OFFCURVE",
"527 530 CURVE SMOOTH",
"527 405 OFFCURVE",
"392 319 OFFCURVE",
"309 319 CURVE",
"323 359 LINE",
"332 212 LINE",
"326 202 LINE"
);
},
{
closed = 1;
nodes = (
"209 114 OFFCURVE",
"239 140 OFFCURVE",
"280 140 CURVE SMOOTH",
"322 140 OFFCURVE",
"350 113 OFFCURVE",
"350 72 CURVE SMOOTH",
"350 32 OFFCURVE",
"321 0 OFFCURVE",
"280 0 CURVE SMOOTH",
"236 0 OFFCURVE",
"209 32 OFFCURVE",
"209 72 CURVE"
);
}
);
userData = {
com.schriftgestaltung.Glyphs.lastChange = "2021-09-11 01:01:19 +0000";
};
width = 600;
}
);
unicode = 003F;
},
{
glyphname = exclam;
layers = (
{
layerId = master01;
paths = (
{
closed = 1;
nodes = (
"58 473 CURVE SMOOTH",
"58 583 OFFCURVE",
"45 780 OFFCURVE",
"45 780 CURVE",
"50 790 LINE",
"162 790 LINE",
"167 780 LINE",
"167 780 OFFCURVE",
"154 582 OFFCURVE",
"154 474 CURVE SMOOTH",
"154 380 OFFCURVE",
"154 200 OFFCURVE",
"154 200 CURVE SMOOTH",
"58 200 LINE SMOOTH",
"58 200 OFFCURVE",
"58 377 OFFCURVE"
);
},
{
closed = 1;
nodes = (
"35 114 OFFCURVE",
"65 140 OFFCURVE",
"106 140 CURVE SMOOTH",
"148 140 OFFCURVE",
"176 113 OFFCURVE",
"176 72 CURVE SMOOTH",
"176 32 OFFCURVE",
"147 0 OFFCURVE",
"106 0 CURVE SMOOTH",
"62 0 OFFCURVE",
"35 32 OFFCURVE",
"35 72 CURVE"
);
}
);
userData = {
com.schriftgestaltung.Glyphs.lastChange = "2021-09-11 01:00:25 +0000";
};
width = 211;
}
);
unicode = 0021;
},
{
glyphname = hyphen;
layers = (
{
layerId = master01;
paths = (
{
closed = 1;
nodes = (
"98 402 OFFCURVE",
"41 404 OFFCURVE",
"35 404 CURVE",
"35 305 LINE",
"43 305 OFFCURVE",
"96 307 OFFCURVE",
"177 307 CURVE SMOOTH",
"256 307 OFFCURVE",
"308 305 OFFCURVE",
"315 305 CURVE",
"315 404 LINE",
"308 404 OFFCURVE",
"253 402 OFFCURVE",
"177 402 CURVE SMOOTH"
);
}
);
width = 350;
}
);
unicode = 002D;
},
{
color = 9;
glyphname = parenright;
layers = (
{
layerId = master01;
paths = (
{
closed = 1;
nodes = (
"274 506 OFFCURVE",
"189 680 OFFCURVE",
"54 777 CURVE",
"46 776 LINE",
"10 727 LINE",
"10 720 LINE",
"111 649 OFFCURVE",
"174 498 OFFCURVE",
"174 326 CURVE SMOOTH",
"174 155 OFFCURVE",
"111 4 OFFCURVE",
"10 -67 CURVE",
"10 -74 LINE",
"46 -124 LINE",
"54 -125 LINE",
"189 -28 OFFCURVE",
"274 146 OFFCURVE",
"274 326 CURVE SMOOTH"
);
}
);
userData = {
com.schriftgestaltung.Glyphs.lastChange = "2021-09-10 05:46:33 +0000";
};
width = 334;
}
);
unicode = 0029;
},
{
color = (38,221,205,255);
glyphname = quotedblleft;
layers = (
{
layerId = master01;
paths = (
{
closed = 1;
nodes = (
"200 534 OFFCURVE",
"146 576 OFFCURVE",
"80 539 CURVE",
"117 520 LINE",
"117 581 OFFCURVE",
"165 650 OFFCURVE",
"189 686 CURVE",
"156 711 LINE",
"104 654 OFFCURVE",
"60 580 OFFCURVE",
"60 501 CURVE",
"60 449 OFFCURVE",
"87 416 OFFCURVE",
"130 416 CURVE SMOOTH",
"172 416 OFFCURVE",
"200 443 OFFCURVE",
"200 486 CURVE"
);
},
{
closed = 1;
nodes = (
"370 534 OFFCURVE",
"316 576 OFFCURVE",
"250 539 CURVE",
"287 520 LINE",
"287 581 OFFCURVE",
"335 650 OFFCURVE",
"359 686 CURVE",
"326 711 LINE",
"274 654 OFFCURVE",
"230 580 OFFCURVE",
"230 501 CURVE",
"230 449 OFFCURVE",
"257 416 OFFCURVE",
"300 416 CURVE SMOOTH",
"342 416 OFFCURVE",
"370 443 OFFCURVE",
"370 486 CURVE"
);
}
);
width = 410;
}
);
unicode = 201C;
},
{
color = (38,221,205,255);
glyphname = quotedblright;
layers = (
{
layerId = master01;
paths = (
{
closed = 1;
nodes = (
"210 623 OFFCURVE",
"264 581 OFFCURVE",
"330 618 CURVE",
"293 637 LINE",
"293 576 OFFCURVE",
"245 507 OFFCURVE",
"221 471 CURVE",
"254 446 LINE",
"306 503 OFFCURVE",
"350 577 OFFCURVE",
"350 656 CURVE",
"350 708 OFFCURVE",
"323 741 OFFCURVE",
"280 741 CURVE SMOOTH",
"238 741 OFFCURVE",
"210 714 OFFCURVE",
"210 671 CURVE"
);
},
{
closed = 1;
nodes = (
"40 623 OFFCURVE",
"94 581 OFFCURVE",
"160 618 CURVE",
"123 637 LINE",
"123 576 OFFCURVE",
"75 507 OFFCURVE",
"51 471 CURVE",
"84 446 LINE",
"136 503 OFFCURVE",
"180 577 OFFCURVE",
"180 656 CURVE",
"180 708 OFFCURVE",
"153 741 OFFCURVE",
"110 741 CURVE SMOOTH",
"68 741 OFFCURVE",
"40 714 OFFCURVE",
"40 671 CURVE"
);
}
);
width = 410;
}
);
unicode = 201D;
},
{
glyphname = ampersand;
lastChange = "2021-09-12 21:03:52 +0000";
layers = (
{
layerId = master01;
paths = (
{
closed = 1;
nodes = (
"509 650 OFFCURVE",
"404 680 OFFCURVE",
"300 680 CURVE SMOOTH",
"158 680 OFFCURVE",
"86 621 OFFCURVE",
"86 506 CURVE",
"86 411 OFFCURVE",
"158 357 OFFCURVE",
"269 350 CURVE",
"260 356 LINE",
"263 358 OFFCURVE",
"247 358 OFFCURVE",
"232 358 CURVE SMOOTH",
"95 358 OFFCURVE",
"40 291 OFFCURVE",
"40 196 CURVE SMOOTH",
"40 56 OFFCURVE",
"150 -11 OFFCURVE",
"300 -11 CURVE SMOOTH",
"421 -11 OFFCURVE",
"527 38 OFFCURVE",
"527 137 CURVE",
"525 209 OFFCURVE",
"524 235 OFFCURVE",
"524 273 CURVE",
"524 356 LINE",
"432 356 LINE",
"435 58 LINE",
"444 115 LINE",
"421 92 OFFCURVE",
"360 77 OFFCURVE",
"300 77 CURVE SMOOTH",
"191 77 OFFCURVE",
"140 121 OFFCURVE",
"140 196 CURVE SMOOTH",
"140 310 OFFCURVE",
"225 319 OFFCURVE",
"336 319 CURVE SMOOTH",
"357 319 OFFCURVE",
"379 319 OFFCURVE",
"402 319 CURVE SMOOTH",
"423 319 OFFCURVE",
"444 319 OFFCURVE",
"465 319 CURVE SMOOTH",
"541 319 OFFCURVE",
"596 307 OFFCURVE",
"616 307 CURVE SMOOTH",
"621 307 OFFCURVE",
"624 308 OFFCURVE",
"624 310 CURVE",
"632 314 LINE",
"632 386 LINE",
"624 390 LINE",
"624 390 OFFCURVE",
"548 387 OFFCURVE",
"468 387 CURVE SMOOTH",
"450 387 OFFCURVE",
"426 386 OFFCURVE",
"401 386 CURVE SMOOTH",
"307 386 OFFCURVE",
"186 397 OFFCURVE",
"186 503 CURVE SMOOTH",
"186 575 OFFCURVE",
"223 605 OFFCURVE",
"294 605 CURVE SMOOTH",
"345 605 OFFCURVE",
"406 592 OFFCURVE",
"465 559 CURVE",
"433 623 LINE",
"435 482 LINE",
"503 480 LINE",
"507 507 OFFCURVE",
"513 549 OFFCURVE",
"513 578 CURVE SMOOTH",
"513 585 OFFCURVE",
"513 592 OFFCURVE",
"512 598 CURVE"
);
}
);
width = 600;
}
);
unicode = 0026;
changeCount = 2;
},
{
color = 9;
glyphname = one;
layers = (
{
layerId = master01;
paths = (
{
closed = 1;
nodes = (
"304 0 LINE",
"309 10 LINE",
"305 69 OFFCURVE",
"299 198 OFFCURVE",
"299 335 CURVE SMOOTH",
"299 441 OFFCURVE",
"305 583 OFFCURVE",
"309 660 CURVE",
"304 670 LINE",
"208 670 LINE",
"156 624 OFFCURVE",
"96 583 OFFCURVE",
"30 548 CURVE",
"25 538 LINE",
"69 471 LINE",
"78 468 LINE",
"127 506 OFFCURVE",
"218 559 OFFCURVE",
"254 575 CURVE",
"202 617 LINE",
"205 567 OFFCURVE",
"209 475 OFFCURVE",
"209 337 CURVE SMOOTH",
"209 199 OFFCURVE",
"207 60 OFFCURVE",
"201 10 CURVE",
"206 0 LINE"
);
}
);
userData = {
com.schriftgestaltung.Glyphs.lastChange = "2021-09-10 05:25:57 +0000";
};
width = 359;
}
);
rightMetricsKey = "=H";
unicode = 0031;
},
{
color = (38,221,205,255);
glyphname = two;
layers = (
{
layerId = master01;
paths = (
{
closed = 1;
nodes = (
"343 352 OFFCURVE",
"144 159 OFFCURVE",
"70 86 CURVE SMOOTH",
"50 66 OFFCURVE",
"70 0 OFFCURVE",
"84 0 CURVE SMOOTH",
"454 0 LINE SMOOTH",
"496 0 OFFCURVE",
"494 83 OFFCURVE",
"493 161 CURVE",
"426 168 LINE",
"407 65 LINE",
"472 90 LINE",
"127 90 LINE",
"135 62 LINE",
"207 128 OFFCURVE",
"443 330 OFFCURVE",
"443 518 CURVE",
"443 611 OFFCURVE",
"381 680 OFFCURVE",
"259 680 CURVE",
"167 680 OFFCURVE",
"96 633 OFFCURVE",
"45 590 CURVE",
"45 587 LINE",
"81 536 LINE",
"83 537 LINE",
"129 562 OFFCURVE",
"175 585 OFFCURVE",
"235 585 CURVE",
"302 585 OFFCURVE",
"343 547 OFFCURVE",
"343 488 CURVE"
);
}
);
width = 533;
}
);
unicode = 0032;
},
{
color = 9;
glyphname = three;
layers = (
{
background = {
paths = (
{
closed = 1;
nodes = (
"416 -10 OFFCURVE",
"560 99 OFFCURVE",
"560 345 CURVE SMOOTH",
"560 591 OFFCURVE",
"419 680 OFFCURVE",
"255 680 CURVE SMOOTH",
"176 680 OFFCURVE",
"116 664 OFFCURVE",
"78 645 CURVE",
"75 640 LINE",
"105 558 LINE",
"109 556 LINE",
"160 577 OFFCURVE",
"195 590 OFFCURVE",
"258 590 CURVE SMOOTH",
"387 590 OFFCURVE",
"460 522 OFFCURVE",
"460 346 CURVE SMOOTH",
"460 170 OFFCURVE",
"387 82 OFFCURVE",
"250 82 CURVE",
"203 82 OFFCURVE",
"154 92 OFFCURVE",
"99 108 CURVE",
"95 106 LINE",
"67 44 LINE",
"70 39 LINE",
"113 15 OFFCURVE",
"182 -10 OFFCURVE",
"269 -10 CURVE"
);
}
);
};
layerId = master01;
paths = (
{
closed = 1;
nodes = (
"76 628 LINE",
"103 558 LINE",
"107 556 LINE",
"150 576 OFFCURVE",
"203 590 OFFCURVE",
"250 590 CURVE SMOOTH",
"311 590 OFFCURVE",
"360 566 OFFCURVE",
"360 502 CURVE SMOOTH",
"360 435 OFFCURVE",
"314 398 OFFCURVE",
"231 398 CURVE SMOOTH",
"192 398 LINE",
"192 316 LINE",
"235 318 LINE SMOOTH",
"343 323 OFFCURVE",
"404 282 OFFCURVE",
"404 203 CURVE SMOOTH",
"404 125 OFFCURVE",
"347 78 OFFCURVE",
"245 78 CURVE SMOOTH",
"190 78 OFFCURVE",
"129 93 OFFCURVE",
"77 108 CURVE",
"73 106 LINE",
"45 44 LINE",
"48 39 LINE",
"105 6 OFFCURVE",
"178 -12 OFFCURVE",
"249 -12 CURVE SMOOTH",
"380 -12 OFFCURVE",
"504 50 OFFCURVE",
"504 191 CURVE SMOOTH",
"504 301 OFFCURVE",
"424 363 OFFCURVE",
"282 363 CURVE",
"282 360 LINE",
"395 367 OFFCURVE",
"458 423 OFFCURVE",
"458 516 CURVE SMOOTH",
"458 628 OFFCURVE",
"365 680 OFFCURVE",
"258 680 CURVE SMOOTH",
"198 680 OFFCURVE",
"134 664 OFFCURVE",
"79 633 CURVE"
);
}
);
userData = {
com.schriftgestaltung.Glyphs.lastChange = "2021-09-10 05:26:24 +0000";
};
width = 534;
}
);
rightMetricsKey = "=B";
unicode = 0033;
},
{
glyphname = four;
layers = (
{
layerId = master01;
paths = (
{
closed = 1;
nodes = (
"484 279 LINE",
"475 279 OFFCURVE",
"188 267 OFFCURVE",
"84 267 CURVE",
"95 241 LINE",
"331 626 LINE",
"333 637 LINE",
"253 691 LINE",
"241 685 LINE",
"43 252 LINE",
"34 239 OFFCURVE",
"36 205 OFFCURVE",
"71 205 CURVE",
"165 203 OFFCURVE",
"444 198 OFFCURVE",
"484 198 CURVE"
);
},
{
closed = 1;
nodes = (
"404 0 LINE",
"406 5 OFFCURVE",
"407 7 OFFCURVE",
"409 12 CURVE",
"406 51 OFFCURVE",
"399 147 OFFCURVE",
"399 241 CURVE SMOOTH",
"399 337 OFFCURVE",
"409 500 OFFCURVE",
"409 500 CURVE",
"404 510 LINE",
"310 510 LINE",
"305 500 LINE",
"305 500 OFFCURVE",
"315 337 OFFCURVE",
"315 241 CURVE SMOOTH",
"315 148 OFFCURVE",
"315 51 OFFCURVE",
"310 11 CURVE",
"312 7 OFFCURVE",
"313 5 OFFCURVE",
"315 0 CURVE"
);
}
);
userData = {
com.schriftgestaltung.Glyphs.lastChange = "2021-09-11 00:54:37 +0000";
};
width = 508;
}
);
unicode = 0034;
},
{
glyphname = five;
layers = (
{
layerId = master01;
paths = (
{
closed = 1;
nodes = (
"493 671 LINE",
"493 600 LINE",
"488 591 LINE",
"405 598 OFFCURVE",
"303 600 OFFCURVE",
"218 599 CURVE",
"239 627 LINE",
"223 438 LINE",
"209 457 LINE",
"376 457 OFFCURVE",
"527 384 OFFCURVE",
"527 225 CURVE SMOOTH",
"527 112 OFFCURVE",
"433 0 OFFCURVE",
"294 0 CURVE",
"221 -7 OFFCURVE",
"154 18 OFFCURVE",
"78 45 CURVE",
"76 52 LINE",
"100 122 LINE",
"105 125 LINE",
"179 99 OFFCURVE",
"219 89 OFFCURVE",
"296 89 CURVE SMOOTH",
"392 89 OFFCURVE",
"436 165 OFFCURVE",
"436 246 CURVE SMOOTH",
"436 362 OFFCURVE",
"284 385 OFFCURVE",
"143 385 CURVE",
"139 394 OFFCURVE",
"133 404 OFFCURVE",
"129 412 CURVE",
"132 670 LINE",
"138 680 LINE",
"242 675 OFFCURVE",
"383 675 OFFCURVE",
"489 681 CURVE"
);
}
);
userData = {
com.schriftgestaltung.Glyphs.lastChange = "2021-09-11 00:57:49 +0000";
};
width = 600;
}
);
unicode = 0035;
},
{
glyphname = eight;
lastChange = "2021-09-12 21:07:30 +0000";
layers = (
{
layerId = master01;
paths = (
{
closed = 1;
nodes = (
"408 358 OFFCURVE",
"67 392 OFFCURVE",
"67 186 CURVE SMOOTH",
"67 60 OFFCURVE",
"157 -10 OFFCURVE",
"295 -10 CURVE SMOOTH",
"424 -10 OFFCURVE",
"525 60 OFFCURVE",
"525 181 CURVE SMOOTH",
"525 374 OFFCURVE",
"188 390 OFFCURVE",
"188 504 CURVE SMOOTH",
"188 568 OFFCURVE",
"231 598 OFFCURVE",
"296 598 CURVE SMOOTH",
"357 598 OFFCURVE",
"408 573 OFFCURVE",
"408 510 CURVE SMOOTH"
);
},
{
closed = 1;
nodes = (
"436 116 OFFCURVE",
"379 74 OFFCURVE",
"295 74 CURVE SMOOTH",
"202 74 OFFCURVE",
"153 116 OFFCURVE",
"153 187 CURVE SMOOTH",
"153 326 OFFCURVE",
"499 334 OFFCURVE",
"499 510 CURVE SMOOTH",
"499 614 OFFCURVE",
"419 678 OFFCURVE",
"295 678 CURVE SMOOTH",
"168 678 OFFCURVE",
"98 609 OFFCURVE",
"98 504 CURVE SMOOTH",
"98 343 OFFCURVE",
"436 338 OFFCURVE",
"436 181 CURVE SMOOTH"
);
}
);
width = 600;
}
);
unicode = 0038;
changeCount = 6;
},
{
glyphname = nine;
lastChange = "2021-09-12 21:04:50 +0000";
layers = (
{
layerId = master01;
paths = (
{
closed = 1;
nodes = (
"341 262 OFFCURVE",
"286 245 OFFCURVE",
"235 245 CURVE SMOOTH",
"124 245 OFFCURVE",
"30 324.009 OFFCURVE",
"30 460 CURVE SMOOTH",
"30 596 OFFCURVE",
"110 677 OFFCURVE",
"253 677 CURVE SMOOTH",
"359 677 OFFCURVE",
"466 591 OFFCURVE",
"466 374 CURVE SMOOTH",
"466 180 OFFCURVE",
"396 -10 OFFCURVE",
"198 -10 CURVE SMOOTH",
"160 -10 OFFCURVE",
"118 -3 OFFCURVE",
"70 11 CURVE",
"89 92 LINE",
"92 98 LINE",
"130 89 OFFCURVE",
"163 85 OFFCURVE",
"191 85 CURVE SMOOTH",
"357 85 OFFCURVE",
"377 218 OFFCURVE",
"377 374 CURVE SMOOTH",
"377 537 OFFCURVE",
"334 590 OFFCURVE",
"240 590 CURVE SMOOTH",
"162 590 OFFCURVE",
"114 528 OFFCURVE",
"114 463 CURVE SMOOTH",
"114 374 OFFCURVE",
"182 325 OFFCURVE",
"260 325 CURVE SMOOTH",
"302 325 OFFCURVE",
"346 339 OFFCURVE",
"385 368 CURVE",
"391 298 LINE"
);
}
);
width = 496;
}
);
unicode = 0039;
changeCount = 4;
},
{
color = 9;
glyphname = M.001;
layers = (
{
layerId = master01;
paths = (
{
closed = 1;
nodes = (
"403 63 LINE",
"191 670 LINE",
"55 670 LINE",
"50 664 LINE",
"64 568 OFFCURVE",
"65 482 OFFCURVE",
"65 375 CURVE SMOOTH",
"65 186 OFFCURVE",
"65 109 OFFCURVE",
"55 10 CURVE",
"60 0 LINE",
"150 0 LINE",
"155 10 LINE",
"145 108 OFFCURVE",
"145 186 OFFCURVE",
"145 440 CURVE",
"127 618 LINE",
"114 609 LINE",
"169 425 LINE",
"325 0 LINE",
"442 0 LINE",
"577 433 LINE",
"630 609 LINE",
"617 618 LINE",
"603 440 LINE",
"603 186 OFFCURVE",
"600 109 OFFCURVE",
"593 10 CURVE",
"598 0 LINE",
"698 0 LINE",
"703 10 LINE",
"694 109 OFFCURVE",
"693 186 OFFCURVE",
"693 375 CURVE SMOOTH",
"693 476 OFFCURVE",
"693 568 OFFCURVE",
"703 664 CURVE",
"698 670 LINE",
"566 670 LINE",
"380 63 LINE"
);
}
);
userData = {
com.schriftgestaltung.Glyphs.lastChange = "2021-09-10 04:54:26 +0000";
};
width = 753;
}
);
leftMetricsKey = "=|H";
rightMetricsKey = "=H";
},
{
glyphname = N.001;
layers = (
{
layerId = master01;
paths = (
{
closed = 1;
nodes = (
"409 82 LINE",
"364 203 LINE",
"176 670 LINE",
"151 670 OFFCURVE",
"82 670 OFFCURVE",
"55 670 CURVE",
"50 664 LINE",
"54 635 OFFCURVE",
"65 458 OFFCURVE",
"65 348 CURVE SMOOTH",
"65 82 OFFCURVE",
"65 152 OFFCURVE",
"55 10 CURVE",
"60 0 LINE",
"169 0 LINE",
"174 10 LINE",
"163 152 OFFCURVE",
"162 86 OFFCURVE",
"162 410 CURVE SMOOTH",
"162 447 OFFCURVE",
"109 603 OFFCURVE",
"107 629 CURVE",
"116 568 LINE",
"173 407 LINE",
"350 0 LINE",
"375 0 OFFCURVE",
"451 0 OFFCURVE",
"478 0 CURVE",
"483 6 LINE",
"479 35 OFFCURVE",
"468 212 OFFCURVE",
"468 322 CURVE SMOOTH",
"468 588 OFFCURVE",
"468 518 OFFCURVE",
"478 660 CURVE",
"473 670 LINE",
"364 670 LINE",
"359 660 LINE",
"370 518 OFFCURVE",
"371 584 OFFCURVE",
"371 260 CURVE SMOOTH",
"371 178 OFFCURVE",
"392 124 OFFCURVE",
"394 55 CURVE"
);
}
);
userData = {
com.schriftgestaltung.Glyphs.lastChange = "2021-09-01 02:57:25 +0000";
};
width = 533;
}
);
},
{
glyphname = T.001;
layers = (
{
layerId = master01;
paths = (
{
closed = 1;
nodes = (
"129 559 LINE",
"137 644 LINE",
"111 558 LINE",
"302 560 LINE",
"472 558 LINE",
"498 459 LINE",
"578 487 LINE",
"578 506 OFFCURVE",
"572 556 OFFCURVE",
"567 591 CURVE SMOOTH",
"557 660 OFFCURVE",
"530 672 OFFCURVE",
"464 672 CURVE",
"472 558 LINE",
"496 558 LINE",
"464 672 LINE",
"302 670 LINE",
"137 670 LINE SMOOTH",
"71 670 OFFCURVE",
"44 660 OFFCURVE",
"34 591 CURVE SMOOTH",
"29 556 OFFCURVE",
"23 506 OFFCURVE",
"23 487 CURVE",
"103 459 LINE"
);
},
{
closed = 1;
nodes = (
"357 0 LINE",
"362 10 LINE",
"362 10 OFFCURVE",
"352 253 OFFCURVE",
"352 352 CURVE SMOOTH",
"352 444 OFFCURVE",
"362 660 OFFCURVE",
"362 660 CURVE",
"357 670 LINE",
"247 670 LINE",
"242 660 LINE",
"242 660 OFFCURVE",
"252 441 OFFCURVE",
"252 352 CURVE",
"252 315 LINE SMOOTH",
"252 213 OFFCURVE",
"242 10 OFFCURVE",
"242 10 CURVE",
"247 0 LINE"
);
}
);
userData = {
com.schriftgestaltung.Glyphs.lastChange = "2021-09-01 03:28:47 +0000";
};
width = 555;
}
);
},
{
glyphname = N.002;
layers = (
{
layerId = master01;
paths = (
{
closed = 1;
nodes = (
"428 92 LINE",
"393 93 LINE",
"374 203 LINE",
"186 670 LINE",
"161 670 OFFCURVE",
"92 670 OFFCURVE",
"65 670 CURVE",
"60 664 LINE",
"64 635 OFFCURVE",
"75 458 OFFCURVE",
"75 348 CURVE SMOOTH",
"75 82 OFFCURVE",
"75 152 OFFCURVE",
"65 10 CURVE",
"70 0 LINE",
"179 0 LINE",
"184 10 LINE",
"173 152 OFFCURVE",
"172 86 OFFCURVE",
"172 410 CURVE SMOOTH",
"172 485 OFFCURVE",
"170 574 OFFCURVE",
"168 635 CURVE",
"142 546 LINE",
"162 546 LINE",
"183 407 LINE",
"360 0 LINE",
"385 0 OFFCURVE",
"461 0 OFFCURVE",
"488 0 CURVE",
"493 6 LINE",
"489 35 OFFCURVE",
"478 212 OFFCURVE",
"478 322 CURVE SMOOTH",
"478 588 OFFCURVE",
"478 518 OFFCURVE",
"488 660 CURVE",
"483 670 LINE",
"374 670 LINE",
"369 660 LINE",
"380 518 OFFCURVE",
"381 584 OFFCURVE",
"381 260 CURVE SMOOTH",
"381 178 OFFCURVE",
"384 124 OFFCURVE",
"386 55 CURVE"
);
}
);
width = 553;
}
);
},
{
glyphname = N.003;
layers = (
{
layerId = master01;
paths = (
{
closed = 1;
nodes = (
"424 -5 LINE",
"430 -5 LINE",
"478 118 LINE",
"248 618 LINE SMOOTH",
"230 658 OFFCURVE",
"217 680 OFFCURVE",
"149 680 CURVE",
"115 680 OFFCURVE",
"84 673 OFFCURVE",
"50 661 CURVE",
"59 576 LINE",
"171 580 LINE",
"131 632 LINE"
);
},
{
closed = 1;
nodes = (
"514 5 LINE",
"519 17 LINE",
"519 85 OFFCURVE",
"509 263 OFFCURVE",
"509 352 CURVE SMOOTH",
"509 442 OFFCURVE",
"519 660 OFFCURVE",
"519 660 CURVE",
"514 670 LINE",
"419 670 LINE",
"414 660 LINE",
"414 660 OFFCURVE",
"424 443 OFFCURVE",
"424 353 CURVE SMOOTH",
"424 262 OFFCURVE",
"426 73 OFFCURVE",
"426 -5 CURVE"
);
},
{
closed = 1;
nodes = (
"210 0 LINE",
"215 12 LINE",
"214 82 OFFCURVE",
"205 262 OFFCURVE",
"205 352 CURVE SMOOTH",
"205 452 OFFCURVE",
"177 585 OFFCURVE",
"177 585 CURVE",
"110 585 LINE",
"110 585 OFFCURVE",
"120 420 OFFCURVE",
"120 352 CURVE SMOOTH",
"120 262 OFFCURVE",
"114 77 OFFCURVE",
"115 11 CURVE",
"120 0 LINE"
);
}
);
width = 609;
}
);
},
{
glyphname = Q.alt;
layers = (
{
background = {
paths = (
{
closed = 1;
nodes = (
"419 -10 OFFCURVE",
"487 95 OFFCURVE",
"487 335 CURVE SMOOTH",
"487 575 OFFCURVE",
"419 680 OFFCURVE",
"263 680 CURVE SMOOTH",
"108 680 OFFCURVE",
"40 575 OFFCURVE",
"40 335 CURVE SMOOTH",
"40 95 OFFCURVE",
"108 -10 OFFCURVE",
"263 -10 CURVE SMOOTH"
);
},
{
closed = 1;
nodes = (
"175 90 OFFCURVE",
"151 143 OFFCURVE",
"151 335 CURVE SMOOTH",
"151 527 OFFCURVE",
"175 580 OFFCURVE",
"263 580 CURVE SMOOTH",
"352 580 OFFCURVE",
"376 527 OFFCURVE",
"376 335 CURVE SMOOTH",
"376 143 OFFCURVE",
"352 90 OFFCURVE",
"263 90 CURVE SMOOTH"
);
},
{
closed = 1;
nodes = (
"282 -147 LINE",
"372 -132 LINE",
"377 -120 LINE",
"290 169 LINE",
"234 161 LINE",
"264 -141 LINE"
);
}
);
};
layerId = master01;
paths = (
{
closed = 1;
nodes = (
"419 -10 OFFCURVE",
"487 95 OFFCURVE",
"487 335 CURVE SMOOTH",
"487 575 OFFCURVE",
"419 680 OFFCURVE",
"263 680 CURVE SMOOTH",
"108 680 OFFCURVE",
"40 575 OFFCURVE",
"40 335 CURVE SMOOTH",
"40 95 OFFCURVE",
"108 -10 OFFCURVE",
"263 -10 CURVE SMOOTH"
);
},
{
closed = 1;
nodes = (
"175 90 OFFCURVE",
"151 143 OFFCURVE",
"151 335 CURVE SMOOTH",
"151 527 OFFCURVE",
"175 580 OFFCURVE",
"263 580 CURVE SMOOTH",
"352 580 OFFCURVE",
"376 527 OFFCURVE",
"376 335 CURVE SMOOTH",
"376 143 OFFCURVE",
"352 90 OFFCURVE",
"263 90 CURVE SMOOTH"
);
},
{
closed = 1;
nodes = (
"317 -188 OFFCURVE",
"384 -188 CURVE SMOOTH",
"419 -188 OFFCURVE",
"449 -176 OFFCURVE",
"506 -140 CURVE",
"458 -64 LINE",
"353 -120 LINE",
"406 -137 LINE",
"363 -89 OFFCURVE",
"321 -15 OFFCURVE",
"273 56 CURVE",
"216 30 LINE",
"284 -152 OFFCURVE"
);
}
);
width = 527;
}
);
},
{
color = (99,255,209,255);
glyphname = h.001;
layers = (
{
background = {
paths = (
{
closed = 1;
nodes = (
"200 387 OFFCURVE",
"232 430 OFFCURVE",
"310 430 CURVE SMOOTH",
"361 430 OFFCURVE",
"376 391 OFFCURVE",
"376 275 CURVE",
"376 196 OFFCURVE",
"372 120 OFFCURVE",
"372 65 CURVE SMOOTH",
"372 13 OFFCURVE",
"403 -10 OFFCURVE",
"443 -10 CURVE",
"466 -10 OFFCURVE",
"497 -5 OFFCURVE",
"524 -1 CURVE",
"528 80 LINE",
"428 100 LINE",
"476 37 LINE",
"476 383 LINE SMOOTH",
"476 467 OFFCURVE",
"425 520 OFFCURVE",
"343 520 CURVE SMOOTH",
"243 520 OFFCURVE",
"180 412 OFFCURVE",
"180 304 CURVE",
"236 440 LINE",
"184 440 LINE",
"200 370 LINE",
"200 698 LINE",
"200 737 OFFCURVE",
"184 760 OFFCURVE",
"139 760 CURVE",
"110 760 OFFCURVE",
"74 752 OFFCURVE",
"41 744 CURVE",
"48 661 LINE",
"109 665 LINE",
"90 712 LINE",
"90 712 OFFCURVE",
"100 655 OFFCURVE",
"100 275 CURVE SMOOTH",
"100 77 OFFCURVE",
"90 10 OFFCURVE",
"90 10 CURVE",
"95 0 LINE",
"205 0 LINE",
"210 10 LINE",
"210 10 OFFCURVE",
"200 89 OFFCURVE",
"200 275 CURVE SMOOTH"
);
}
);
};
layerId = master01;
paths = (
{
closed = 1;
nodes = (
"476 383 LINE SMOOTH",
"476 478 OFFCURVE",
"440 520 OFFCURVE",
"351 520 CURVE SMOOTH",
"283 520 OFFCURVE",
"244 490 OFFCURVE",
"205 440 CURVE",
"180 440 LINE",
"180 382 LINE",
"210 401 OFFCURVE",
"262 430 OFFCURVE",
"317 430 CURVE SMOOTH",
"369 430 OFFCURVE",
"376 388 OFFCURVE",
"376 275 CURVE",
"376 196 OFFCURVE",
"372 120 OFFCURVE",
"372 65 CURVE SMOOTH",
"372 13 OFFCURVE",
"400 -10 OFFCURVE",
"443 -10 CURVE",
"466 -10 OFFCURVE",
"497 -5 OFFCURVE",
"524 -1 CURVE",
"528 80 LINE",
"428 100 LINE",
"476 37 LINE"
);
},
{
closed = 1;
nodes = (
"90 702 OFFCURVE",
"100 607 OFFCURVE",
"100 375 CURVE SMOOTH",
"100 102 OFFCURVE",
"90 10 OFFCURVE",
"90 10 CURVE",
"95 0 LINE",
"205 0 LINE",
"210 10 LINE",
"210 10 OFFCURVE",
"200 119 OFFCURVE",
"200 375 CURVE SMOOTH",
"200 507 OFFCURVE",
"200 688 OFFCURVE",
"200 688 CURVE",
"200 727 OFFCURVE",
"184 750 OFFCURVE",
"139 750 CURVE",
"110 750 OFFCURVE",
"74 742 OFFCURVE",
"41 734 CURVE",
"48 651 LINE",
"109 655 LINE",
"90 702 LINE"
);
}
);
userData = {
com.schriftgestaltung.Glyphs.lastChange = "2021-09-01 04:59:17 +0000";
};
width = 567;
}
);
},
{
glyphname = m.001;
layers = (
{
background = {
paths = (
{
closed = 1;
nodes = (
"200 384 OFFCURVE",
"229 430 OFFCURVE",
"296 430 CURVE",
"358 430 OFFCURVE",
"376 394 OFFCURVE",
"376 275 CURVE",
"376 196 OFFCURVE",
"372 120 OFFCURVE",
"372 65 CURVE SMOOTH",
"372 13 OFFCURVE",
"403 -10 OFFCURVE",
"443 -10 CURVE",
"466 -10 OFFCURVE",
"497 -5 OFFCURVE",
"524 -1 CURVE",
"528 80 LINE",
"428 100 LINE",
"476 37 LINE",
"476 383 LINE SMOOTH",
"476 477 OFFCURVE",
"438 520 OFFCURVE",
"345 520 CURVE",
"250 520 OFFCURVE",
"199 447 OFFCURVE",
"184 394 CURVE",
"220 440 LINE",
"184 440 LINE",
"200 413 LINE",
"200 458 LINE SMOOTH",
"200 499 OFFCURVE",
"184 520 OFFCURVE",
"139 520 CURVE",
"110 520 OFFCURVE",
"74 513 OFFCURVE",
"41 505 CURVE",
"48 422 LINE",
"109 425 LINE",
"90 472 LINE",
"90 472 OFFCURVE",
"100 415 OFFCURVE",
"100 275 CURVE SMOOTH",
"100 77 OFFCURVE",
"90 10 OFFCURVE",
"90 10 CURVE",
"95 0 LINE",
"205 0 LINE",
"210 10 LINE",
"210 10 OFFCURVE",
"200 89 OFFCURVE",
"200 275 CURVE SMOOTH"
);
},
{
closed = 1;
nodes = (
"476 384 OFFCURVE",
"505 430 OFFCURVE",
"572 430 CURVE",
"634 430 OFFCURVE",
"652 394 OFFCURVE",
"652 275 CURVE",
"652 196 OFFCURVE",
"648 120 OFFCURVE",
"648 65 CURVE SMOOTH",
"648 13 OFFCURVE",
"679 -10 OFFCURVE",
"719 -10 CURVE",
"742 -10 OFFCURVE",
"773 -5 OFFCURVE",
"800 -1 CURVE",
"804 80 LINE",
"704 100 LINE",
"752 37 LINE",
"752 383 LINE SMOOTH",
"752 477 OFFCURVE",
"714 520 OFFCURVE",
"621 520 CURVE",
"526 520 OFFCURVE",
"475 447 OFFCURVE",
"460 394 CURVE",
"496 440 LINE",
"460 440 LINE",
"476 413 LINE",
"476 458 LINE SMOOTH",
"476 499 OFFCURVE",
"460 520 OFFCURVE",
"415 520 CURVE",
"386 520 OFFCURVE",
"350 513 OFFCURVE",
"317 505 CURVE",
"324 422 LINE",
"385 425 LINE",
"366 472 LINE",
"366 472 OFFCURVE",
"376 415 OFFCURVE",
"376 275 CURVE SMOOTH",
"376 77 OFFCURVE",
"366 10 OFFCURVE",
"366 10 CURVE",
"371 0 LINE",
"481 0 LINE",
"486 10 LINE",
"486 10 OFFCURVE",
"476 89 OFFCURVE",
"476 275 CURVE SMOOTH"
);
}
);
};
guideLines = (
{
position = "{414, 251}";
}
);
layerId = master01;
paths = (
{
closed = 1;
nodes = (
"732 373 LINE SMOOTH",
"732 469 OFFCURVE",
"696 520 OFFCURVE",
"607 520 CURVE SMOOTH",
"542 520 OFFCURVE",
"502 483 OFFCURVE",
"467 430 CURVE",
"442 430 LINE",
"442 373 LINE",
"471 394 OFFCURVE",
"516 430 OFFCURVE",
"569 430 CURVE SMOOTH",
"621 430 OFFCURVE",
"632 380 OFFCURVE",
"632 275 CURVE",
"632 196 OFFCURVE",
"628 120 OFFCURVE",
"628 65 CURVE SMOOTH",
"628 14 OFFCURVE",
"654 -9 OFFCURVE",
"680 -9 CURVE SMOOTH",
"703 -9 OFFCURVE",
"746 -5 OFFCURVE",
"770 0 CURVE",
"774 80 LINE",
"684 100 LINE",
"732 37 LINE"
);
},
{
closed = 1;
nodes = (
"466 389 LINE SMOOTH",
"466 473 OFFCURVE",
"430 520 OFFCURVE",
"341 520 CURVE SMOOTH",
"276 520 OFFCURVE",
"236 483 OFFCURVE",
"201 430 CURVE",
"176 430 LINE",
"176 373 LINE",
"205 394 OFFCURVE",
"250 430 OFFCURVE",
"303 430 CURVE SMOOTH",
"355 430 OFFCURVE",
"366 380 OFFCURVE",
"366 275 CURVE",
"366 88 OFFCURVE",
"356 10 OFFCURVE",
"356 10 CURVE",
"361 0 LINE",
"471 0 LINE",
"476 10 LINE",
"476 10 OFFCURVE",
"466 85 OFFCURVE",
"466 275 CURVE SMOOTH"
);
},
{
closed = 1;
nodes = (
"90 472 OFFCURVE",
"100 415 OFFCURVE",
"100 275 CURVE SMOOTH",
"100 77 OFFCURVE",
"90 10 OFFCURVE",
"90 10 CURVE",
"95 0 LINE",
"205 0 LINE",
"210 10 LINE",
"210 10 OFFCURVE",
"200 89 OFFCURVE",
"200 275 CURVE SMOOTH",
"200 352 OFFCURVE",
"200 458 OFFCURVE",
"200 458 CURVE",
"200 497 OFFCURVE",
"184 520 OFFCURVE",
"139 520 CURVE",
"110 520 OFFCURVE",
"74 512 OFFCURVE",
"41 504 CURVE",
"48 421 LINE",
"109 425 LINE",
"90 472 LINE"
);
}
);
userData = {
com.schriftgestaltung.Glyphs.lastChange = "2021-09-01 04:59:07 +0000";
com.typemytype.robofont.guideline.showMeasurements.RPSkcjBNnE = 1;
};
width = 823;
}
);
},
{
color = (99,255,209,255);
glyphname = n.001;
layers = (
{
anchors = (
{
name = top;
position = "{276, 510}";
}
);
background = {
paths = (
{
closed = 1;
nodes = (
"476 383 LINE SMOOTH",
"476 478 OFFCURVE",
"440 520 OFFCURVE",
"351 520 CURVE SMOOTH",
"283 520 OFFCURVE",
"240 492 OFFCURVE",
"205 440 CURVE",
"180 440 LINE",
"180 383 LINE",
"210 395 OFFCURVE",
"262 430 OFFCURVE",
"317 430 CURVE SMOOTH",
"369 430 OFFCURVE",
"376 388 OFFCURVE",
"376 275 CURVE",
"376 196 OFFCURVE",
"372 120 OFFCURVE",
"372 65 CURVE SMOOTH",
"372 13 OFFCURVE",
"403 -10 OFFCURVE",
"443 -10 CURVE",
"466 -10 OFFCURVE",
"497 -5 OFFCURVE",
"524 -1 CURVE",
"528 80 LINE",
"428 100 LINE",
"476 37 LINE"
);
},
{
closed = 1;
nodes = (
"90 472 OFFCURVE",
"100 415 OFFCURVE",
"100 275 CURVE SMOOTH",
"100 77 OFFCURVE",
"90 10 OFFCURVE",
"90 10 CURVE",
"95 0 LINE",
"205 0 LINE",
"210 10 LINE",
"210 10 OFFCURVE",
"200 89 OFFCURVE",
"200 275 CURVE SMOOTH",
"200 352 OFFCURVE",
"200 458 OFFCURVE",
"200 458 CURVE",
"200 497 OFFCURVE",
"184 520 OFFCURVE",
"139 520 CURVE",
"110 520 OFFCURVE",
"74 512 OFFCURVE",
"41 504 CURVE",
"48 421 LINE",
"109 425 LINE",
"90 472 LINE"
);
},
{
closed = 1;
nodes = (
"362 80 OFFCURVE",
"388 128 OFFCURVE",
"388 255 CURVE SMOOTH",
"388 382 OFFCURVE",
"362 430 OFFCURVE",
"293 430 CURVE SMOOTH",
"225 430 OFFCURVE",
"199 382 OFFCURVE",
"199 255 CURVE SMOOTH",
"199 128 OFFCURVE",
"225 80 OFFCURVE",
"293 80 CURVE SMOOTH"
);
},
{
closed = 1;
nodes = (
"171 -10 OFFCURVE",
"94 92 OFFCURVE",
"94 255 CURVE SMOOTH",
"94 418 OFFCURVE",
"171 520 OFFCURVE",
"293 520 CURVE SMOOTH",
"416 520 OFFCURVE",
"493 418 OFFCURVE",
"493 255 CURVE SMOOTH",
"493 92 OFFCURVE",
"416 -10 OFFCURVE",
"293 -10 CURVE SMOOTH"
);
}
);
};
layerId = master01;
paths = (
{
closed = 1;
nodes = (
"475 383 LINE SMOOTH",
"475 478 OFFCURVE",
"439 520 OFFCURVE",
"350 520 CURVE SMOOTH",
"282 520 OFFCURVE",
"239 492 OFFCURVE",
"204 440 CURVE",
"179 440 LINE",
"179 383 LINE",
"209 395 OFFCURVE",
"261 430 OFFCURVE",
"316 430 CURVE SMOOTH",
"368 430 OFFCURVE",
"375 388 OFFCURVE",
"375 275 CURVE",
"375 196 OFFCURVE",
"371 120 OFFCURVE",
"371 65 CURVE SMOOTH",
"371 13 OFFCURVE",
"402 -10 OFFCURVE",
"442 -10 CURVE",
"465 -10 OFFCURVE",
"496 -5 OFFCURVE",
"523 -1 CURVE",
"527 80 LINE",
"427 100 LINE",
"475 37 LINE"
);
},
{
closed = 1;
nodes = (
"89 472 OFFCURVE",
"99 415 OFFCURVE",
"99 275 CURVE SMOOTH",
"99 77 OFFCURVE",
"89 10 OFFCURVE",
"89 10 CURVE",
"94 0 LINE",
"204 0 LINE",
"209 10 LINE",
"209 10 OFFCURVE",
"199 89 OFFCURVE",
"199 275 CURVE SMOOTH",
"199 352 OFFCURVE",
"199 458 OFFCURVE",
"199 458 CURVE",
"199 497 OFFCURVE",
"183 520 OFFCURVE",
"138 520 CURVE",
"109 520 OFFCURVE",
"73 512 OFFCURVE",
"40 504 CURVE",
"47 421 LINE",
"108 425 LINE",
"89 472 LINE"
);
}
);
userData = {
com.schriftgestaltung.Glyphs.lastChange = "2021-09-01 04:56:27 +0000";
};
width = 567;
}
);
},
{
glyphname = v.001;
layers = (
{
background = {
paths = (
{
closed = 1;
nodes = (
"460 416 LINE SMOOTH",
"460 504 OFFCURVE",
"439 555 OFFCURVE",
"350 555 CURVE SMOOTH",
"290 555 OFFCURVE",
"251 523 OFFCURVE",
"209 465 CURVE",
"184 465 LINE",
"184 416 LINE",
"217 434 OFFCURVE",
"266 461 OFFCURVE",
"301 461 CURVE",
"353 461 OFFCURVE",
"360 436 OFFCURVE",
"360 305 CURVE",
"360 226 OFFCURVE",
"350 120 OFFCURVE",
"350 65 CURVE SMOOTH",
"350 14 OFFCURVE",
"369 -9 OFFCURVE",
"408 -9 CURVE SMOOTH",
"433 -9 OFFCURVE",
"479 -6 OFFCURVE",
"506 0 CURVE",
"510 80 LINE",
"412 100 LINE",
"460 37 LINE"
);
},
{
closed = 1;
nodes = (
"100 505 OFFCURVE",
"110 391 OFFCURVE",
"110 305 CURVE SMOOTH",
"110 217 OFFCURVE",
"100 10 OFFCURVE",
"100 10 CURVE",
"105 0 LINE",
"215 0 LINE",
"220 10 LINE",
"220 10 OFFCURVE",
"210 219 OFFCURVE",
"210 305 CURVE SMOOTH",
"210 391 OFFCURVE",
"205 491 OFFCURVE",
"205 491 CURVE",
"205 530 OFFCURVE",
"190 553 OFFCURVE",
"149 553 CURVE",
"118 553 OFFCURVE",
"81 545 OFFCURVE",
"50 534 CURVE",
"57 454 LINE",
"119 458 LINE",
"100 505 LINE"
);
}
);
};
guideLines = (
{
position = "{97, 482}";
}
);
layerId = master01;
paths = (
{
closed = 1;
nodes = (
"963 262 LINE",
"907 8 LINE",
"901 -2 LINE",
"740 -2 LINE",
"740 -2 OFFCURVE",
"734 8 OFFCURVE",
"734 8 CURVE SMOOTH",
"734 8 OFFCURVE",
"696 183 OFFCURVE",
"673 264 CURVE SMOOTH",
"650 344 OFFCURVE",
"631 400 OFFCURVE",
"631 400 CURVE",
"623 425 OFFCURVE",
"613 433 OFFCURVE",
"600 433 CURVE",
"592 433 OFFCURVE",
"576 429 OFFCURVE",
"576 429 CURVE",
"567 506 LINE",
"598 511 OFFCURVE",
"624 515 OFFCURVE",
"661 515 CURVE SMOOTH",
"706 515 OFFCURVE",
"718 487 OFFCURVE",
"727 448 CURVE SMOOTH",
"727 448 OFFCURVE",
"750 354 OFFCURVE",
"766 289 CURVE SMOOTH",
"787 206 OFFCURVE",
"835 51 OFFCURVE",
"835 51 CURVE",
"814 51 LINE",
"814 51 OFFCURVE",
"852 175 OFFCURVE",
"878 289 CURVE SMOOTH",
"904 405 OFFCURVE",
"915 453 OFFCURVE",
"915 453 CURVE",
"924 492 OFFCURVE",
"935 521 OFFCURVE",
"973 521 CURVE SMOOTH",
"1010 521 OFFCURVE",
"1036 517 OFFCURVE",
"1067 512 CURVE",
"1058 435 LINE",
"1058 435 OFFCURVE",
"1042 439 OFFCURVE",
"1034 439 CURVE",
"1021 439 OFFCURVE",
"1011 431 OFFCURVE",
"1003 406 CURVE"
);
},
{
closed = 1;
nodes = (
"405 259 LINE",
"350 8 LINE",
"344 -2 LINE",
"183 -2 LINE",
"183 -2 OFFCURVE",
"177 8 OFFCURVE",
"177 8 CURVE SMOOTH",
"177 8 OFFCURVE",
"142 183 OFFCURVE",
"116 264 CURVE SMOOTH",
"93 336 OFFCURVE",
"33 501 OFFCURVE",
"33 501 CURVE SMOOTH",
"33 501 OFFCURVE",
"38 510 OFFCURVE",
"38 510 CURVE SMOOTH",
"38 510 OFFCURVE",
"151 510 OFFCURVE",
"151 510 CURVE SMOOTH",
"151 510 OFFCURVE",
"157 501 OFFCURVE",
"157 501 CURVE SMOOTH",
"157 501 OFFCURVE",
"191 356 OFFCURVE",
"209 289 CURVE SMOOTH",
"231 206 OFFCURVE",
"278 51 OFFCURVE",
"278 51 CURVE",
"257 51 LINE",
"257 51 OFFCURVE",
"295 175 OFFCURVE",
"321 289 CURVE SMOOTH",
"347 405 OFFCURVE",
"358 503 OFFCURVE",
"358 503 CURVE SMOOTH",
"358 503 OFFCURVE",
"365 510 OFFCURVE",
"365 510 CURVE SMOOTH",
"365 510 OFFCURVE",
"467 510 OFFCURVE",
"467 510 CURVE SMOOTH",
"467 510 OFFCURVE",
"473 501 OFFCURVE",
"473 501 CURVE SMOOTH"
);
},
{
closed = 1;
nodes = (
"-197 0 LINE",
"-327 0 LINE",
"-438 362 LINE SMOOTH",
"-456 421 OFFCURVE",
"-460 433 OFFCURVE",
"-473 433 CURVE",
"-481 433 OFFCURVE",
"-489 431 OFFCURVE",
"-497 429 CURVE",
"-506 506 LINE",
"-475 511 OFFCURVE",
"-449 515 OFFCURVE",
"-412 515 CURVE SMOOTH",
"-369 515 OFFCURVE",
"-356 488 OFFCURVE",
"-342 434 CURVE SMOOTH",
"-246 71 LINE",
"-257 71 LINE",
"-179 362 LINE SMOOTH",
"-165 412 OFFCURVE",
"-166 433 OFFCURVE",
"-183 433 CURVE",
"-191 433 OFFCURVE",
"-196 432 OFFCURVE",
"-204 430 CURVE",
"-213 506 LINE",
"-182 512 OFFCURVE",
"-158 515 OFFCURVE",
"-125 515 CURVE",
"-67 515 OFFCURVE",
"-47 475 OFFCURVE",
"-62 426 CURVE SMOOTH"
);
}
);
userData = {
com.schriftgestaltung.Glyphs.lastChange = "2021-08-31 16:09:11 +0000";
};
width = 519;
}
);
},
{
glyphname = a.alt;
layers = (
{
background = {
paths = (
{
closed = 1;
nodes = (
"388 -9 OFFCURVE",
"436 -6 OFFCURVE",
"463 0 CURVE",
"467 80 LINE",
"367 100 LINE",
"415 37 LINE",
"415 294 LINE SMOOTH",
"415 449 OFFCURVE",
"360 520 OFFCURVE",
"255 520 CURVE",
"165 520 OFFCURVE",
"113 499 OFFCURVE",
"49 471 CURVE",
"48 467 LINE",
"75 403 LINE",
"78 403 LINE",
"121 419 OFFCURVE",
"151 430 OFFCURVE",
"207 430 CURVE SMOOTH",
"276 430 OFFCURVE",
"316 407 OFFCURVE",
"316 344 CURVE SMOOTH",
"316 57 LINE SMOOTH",
"316 12 OFFCURVE",
"327 -9 OFFCURVE",
"363 -9 CURVE SMOOTH"
);
},
{
closed = 1;
nodes = (
"242 -10 OFFCURVE",
"280 27 OFFCURVE",
"311 70 CURVE",
"327 70 LINE",
"327 110 LINE",
"288 94 OFFCURVE",
"249 80 OFFCURVE",
"200 80 CURVE",
"157 80 OFFCURVE",
"139 111 OFFCURVE",
"139 157 CURVE",
"139 234 OFFCURVE",
"180 259 OFFCURVE",
"320 259 CURVE",
"320 327 LINE",
"140 327 OFFCURVE",
"36 296 OFFCURVE",
"36 146 CURVE SMOOTH",
"36 37 OFFCURVE",
"80 -10 OFFCURVE",
"164 -10 CURVE"
);
}
);
};
layerId = master01;
paths = (
{
closed = 1;
nodes = (
"333 84 OFFCURVE",
"333 64 CURVE SMOOTH",
"333 20 OFFCURVE",
"351 -10 OFFCURVE",
"389 -10 CURVE SMOOTH",
"417 -10 OFFCURVE",
"453.887 -5.022 OFFCURVE",
"479 0 CURVE",
"483 79 LINE",
"387 98 LINE",
"431 44 LINE",
"431 98 OFFCURVE",
"424 147 OFFCURVE",
"424 288 CURVE",
"424 405 OFFCURVE",
"428.88 471.327 OFFCURVE",
"434 500 CURVE",
"429 510 LINE",
"352 517 LINE",
"344 510 LINE",
"327 416 LINE",
"327 260 LINE SMOOTH",
"327 138 OFFCURVE",
"298 85 OFFCURVE",
"240 85 CURVE SMOOTH",
"179 85 OFFCURVE",
"147 164 OFFCURVE",
"147 277 CURVE SMOOTH",
"147 390 OFFCURVE",
"175 425 OFFCURVE",
"237 425 CURVE SMOOTH",
"269 425 OFFCURVE",
"312 412 OFFCURVE",
"351 386 CURVE",
"377 440 LINE",
"310 440 LINE",
"330 429 LINE",
"313 466 OFFCURVE",
"277 520 OFFCURVE",
"214 520 CURVE SMOOTH",
"118 520 OFFCURVE",
"37 481 OFFCURVE",
"37 258 CURVE SMOOTH",
"37 79 OFFCURVE",
"94 -10 OFFCURVE",
"207 -10 CURVE",
"287 -10 OFFCURVE",
"326 59 OFFCURVE",
"349 107 CURVE",
"337 122 LINE",
"334 107 OFFCURVE"
);
}
);
width = 496;
}
);
},
{
glyphname = i.alt;
layers = (
{
layerId = master01;
paths = (
{
closed = 1;
nodes = (
"77 729 OFFCURVE",
"108 756 OFFCURVE",
"150 756 CURVE SMOOTH",
"193 756 OFFCURVE",
"222 728 OFFCURVE",
"222 686 CURVE SMOOTH",
"222 644 OFFCURVE",
"192 611 OFFCURVE",
"150 611 CURVE SMOOTH",
"104 611 OFFCURVE",
"77 644 OFFCURVE",
"77 686 CURVE"
);
},
{
closed = 1;
nodes = (
"198 395 OFFCURVE",
"198 441 CURVE SMOOTH",
"198 492 OFFCURVE",
"170 515 OFFCURVE",
"138 515 CURVE SMOOTH",
"115 515 OFFCURVE",
"68 511 OFFCURVE",
"43 506 CURVE",
"39 426 LINE",
"134 406 LINE",
"86 469 LINE",
"90 442 OFFCURVE",
"98 357 OFFCURVE",
"98 260 CURVE",
"98 138 OFFCURVE",
"96 106 OFFCURVE",
"96 64 CURVE SMOOTH",
"96 13 OFFCURVE",
"124 -10 OFFCURVE",
"156 -10 CURVE SMOOTH",
"179 -10 OFFCURVE",
"223 -6 OFFCURVE",
"247 -1 CURVE",
"251 79 LINE",
"160 99 LINE",
"208 36 LINE",
"203 65 OFFCURVE",
"193 83 OFFCURVE",
"193 260 CURVE",
"193 322 OFFCURVE"
);
}
);
width = 300;
}
);
},
{
color = (38,221,205,255);
glyphname = u.alt;
layers = (
{
layerId = master01;
paths = (
{
closed = 1;
nodes = (
"392 136 OFFCURVE",
"364 70 OFFCURVE",
"283 70 CURVE",
"205 70 OFFCURVE",
"182 110 OFFCURVE",
"182 225 CURVE",
"182 308 OFFCURVE",
"186 387 OFFCURVE",
"186 445 CURVE SMOOTH",
"186 497 OFFCURVE",
"162 520 OFFCURVE",
"130 520 CURVE",
"107 520 OFFCURVE",
"76 515 OFFCURVE",
"49 511 CURVE",
"45 446 LINE",
"139 427 LINE",
"97 478 LINE",
"97 165 LINE SMOOTH",
"97 45 OFFCURVE",
"154 -10 OFFCURVE",
"247 -10 CURVE",
"346 -10 OFFCURVE",
"385 55 OFFCURVE",
"405 130 CURVE",
"368 86 LINE",
"406 86 LINE",
"393 101 LINE",
"393 57 LINE SMOOTH",
"393 13 OFFCURVE",
"408 -10 OFFCURVE",
"453 -10 CURVE",
"474 -10 OFFCURVE",
"502 -5 OFFCURVE",
"526 1 CURVE",
"530 65 LINE",
"448 76 LINE",
"485 39 LINE",
"485 39 OFFCURVE",
"477 96 OFFCURVE",
"477 235 CURVE",
"477 314 OFFCURVE",
"481 390 OFFCURVE",
"481 445 CURVE SMOOTH",
"481 497 OFFCURVE",
"457 520 OFFCURVE",
"425 520 CURVE",
"402 520 OFFCURVE",
"371 515 OFFCURVE",
"344 511 CURVE",
"340 446 LINE",
"434 427 LINE",
"392 478 LINE",
"392 259 LINE SMOOTH"
);
}
);
width = 575;
}
);
},
{
glyphname = acute;
layers = (
{
anchors = (
{
name = _top;
position = "{186, 510}";
}
);
background = {
paths = (
{
closed = 1;
nodes = (
"96 613 LINE",
"67 834 LINE",
"75 842 LINE",
"186 842 LINE",
"194 834 LINE",
"165 613 LINE",
"159 607 LINE",
"102 607 LINE"
);
}
);
};
layerId = master01;
paths = (
{
closed = 1;
nodes = (
"100 617 LINE",
"256 778 LINE",
"266 778 LINE",
"332 697 LINE",
"332 687 LINE",
"138 570 LINE",
"131 570 LINE",
"100 609 LINE"
);
}
);
userData = {
com.schriftgestaltung.Glyphs.lastChange = "2021-09-01 03:20:24 +0000";
};
width = 435;
}
);
unicode = 00B4;
},
{
glyphname = tilde;
layers = (
{
anchors = (
{
name = _top;
position = "{195, 510}";
}
);
background = {
paths = (
{
closed = 1;
nodes = (
"125 623 OFFCURVE",
"87 601 OFFCURVE",
"58 583 CURVE",
"30 608 LINE",
"52 646 OFFCURVE",
"99 708 OFFCURVE",
"149 708 CURVE SMOOTH",
"172 708 OFFCURVE",
"238 664 OFFCURVE",
"259 664 CURVE SMOOTH",
"278 664 OFFCURVE",
"315 686 OFFCURVE",
"344 703 CURVE",
"372 679 LINE",
"350 642 OFFCURVE",
"302 578 OFFCURVE",
"252 578 CURVE SMOOTH",
"232 578 OFFCURVE",
"169 623 OFFCURVE",
"144 623 CURVE SMOOTH"
);
}
);
};
layerId = master01;
paths = (
{
closed = 1;
nodes = (
"111 623 OFFCURVE",
"70 615 OFFCURVE",
"58 583 CURVE",
"27 583 LINE",
"17 643 OFFCURVE",
"51 708 OFFCURVE",
"130 708 CURVE",
"198 708 OFFCURVE",
"230 664 OFFCURVE",
"287 664 CURVE SMOOTH",
"300 664 OFFCURVE",
"333 674 OFFCURVE",
"344 703 CURVE",
"380 703 LINE",
"391 642 OFFCURVE",
"362 578 OFFCURVE",
"284 578 CURVE SMOOTH",
"200 578 OFFCURVE",
"188 623 OFFCURVE",
"126 623 CURVE SMOOTH"
);
}
);
userData = {
com.schriftgestaltung.Glyphs.lastChange = "2021-09-01 03:24:27 +0000";
};
width = 402;
}
);
unicode = 02DC;
},
{
glyphname = tilde.001;
layers = (
{
anchors = (
{
name = _top;
position = "{200, 510}";
}
);
background = {
paths = (
{
closed = 1;
nodes = (
"125 623 OFFCURVE",
"87 601 OFFCURVE",
"58 583 CURVE",
"30 608 LINE",
"52 646 OFFCURVE",
"99 708 OFFCURVE",
"149 708 CURVE SMOOTH",
"172 708 OFFCURVE",
"238 664 OFFCURVE",
"259 664 CURVE SMOOTH",
"278 664 OFFCURVE",
"315 686 OFFCURVE",
"344 703 CURVE",
"372 679 LINE",
"350 642 OFFCURVE",
"302 578 OFFCURVE",
"252 578 CURVE SMOOTH",
"232 578 OFFCURVE",
"169 623 OFFCURVE",
"144 623 CURVE SMOOTH"
);
}
);
};
layerId = master01;
paths = (
{
closed = 1;
nodes = (
"343 586 OFFCURVE",
"383 647 OFFCURVE",
"383 731 CURVE",
"318 731 LINE",
"320 691 OFFCURVE",
"308 671 OFFCURVE",
"271 671 CURVE SMOOTH",
"226 671 OFFCURVE",
"205 733 OFFCURVE",
"120 733 CURVE SMOOTH",
"57 733 OFFCURVE",
"17 672 OFFCURVE",
"17 588 CURVE",
"82 588 LINE",
"80 628 OFFCURVE",
"92 648 OFFCURVE",
"119 648 CURVE SMOOTH",
"174 648 OFFCURVE",
"195 586 OFFCURVE",
"270 586 CURVE SMOOTH"
);
}
);
userData = {
com.schriftgestaltung.Glyphs.lastChange = "2021-09-10 06:02:04 +0000";
};
width = 402;
}
);
},
